<svg width="16" height="16" viewBox="0 0 16 16" fill="none" xmlns="http://www.w3.org/2000/svg">
<path d="M15.1998 8.1646C15.1998 6.25504 14.4412 4.42369 13.091 3.07343C11.7407 1.72317 9.90936 0.9646 7.9998 0.9646C6.09025 0.9646 4.2589 1.72317 2.90864 3.07343C1.55837 4.42369 0.799805 6.25504 0.799805 8.1646L0.806105 8.476L0.829505 8.8198C0.911923 9.72524 1.16508 10.6069 1.5756 11.4181L1.6323 11.5261L0.813305 14.8057L0.800705 14.8804V14.9542C0.806421 15.019 0.826139 15.0819 0.858499 15.1384C0.890858 15.1949 0.935089 15.2436 0.988137 15.2814C1.04119 15.3191 1.10179 15.3449 1.16577 15.3569C1.22974 15.369 1.29557 15.367 1.3587 15.3511L4.6392 14.5321L4.74721 14.5897C5.84501 15.1456 7.06697 15.4108 8.29645 15.3601C9.52593 15.3094 10.7219 14.9445 11.7702 14.3001C12.8185 13.6557 13.6842 12.7534 14.2846 11.6793C14.885 10.6052 15.2001 9.39512 15.1998 8.1646ZM4.3998 6.3646C4.3998 6.1259 4.49463 5.89699 4.66341 5.7282C4.83219 5.55942 5.06111 5.4646 5.2998 5.4646H7.9998C8.2385 5.4646 8.46742 5.55942 8.6362 5.7282C8.80498 5.89699 8.89981 6.1259 8.89981 6.3646V9.9646C8.89981 10.2033 8.80498 10.4322 8.6362 10.601C8.46742 10.7698 8.2385 10.8646 7.9998 10.8646H5.2998C5.06111 10.8646 4.83219 10.7698 4.66341 10.601C4.49463 10.4322 4.3998 10.2033 4.3998 9.9646V6.3646ZM10.8312 6.2332C10.8941 6.17016 10.9743 6.12719 11.0616 6.10973C11.1489 6.09227 11.2394 6.10111 11.3217 6.13512C11.404 6.16914 11.4743 6.2268 11.5238 6.30081C11.5734 6.37482 11.5998 6.46186 11.5998 6.5509V9.7783C11.5998 9.86734 11.5734 9.95438 11.5238 10.0284C11.4743 10.1024 11.404 10.1601 11.3217 10.1941C11.2394 10.2281 11.1489 10.2369 11.0616 10.2195C10.9743 10.202 10.8941 10.159 10.8312 10.096L9.7998 9.0646V7.2646L10.8312 6.2332Z" fill="#222222"/>
</svg>
