<svg width="485" height="233" viewBox="0 0 485 233" fill="none" xmlns="http://www.w3.org/2000/svg">
<path d="M150.47 28.7588C150.317 36.2998 147.905 42.5967 143.233 47.6494C140.618 50.4678 137.508 52.6641 133.902 54.2383C130.322 55.7871 126.603 56.5615 122.743 56.5615C119.392 56.5615 116.091 55.9268 112.841 54.6572C109.591 53.3877 106.709 51.6104 104.195 49.3252C100.971 46.3799 98.584 42.8379 97.0352 38.6992C95.8164 35.3984 95.207 32.123 95.207 28.873C95.207 22.8301 97.0732 17.3457 100.806 12.4199C103.37 8.99219 106.595 6.31348 110.479 4.38379C114.364 2.42871 118.439 1.45117 122.705 1.45117C130.195 1.45117 136.645 4.02832 142.053 9.18262C144.465 11.4932 145.671 13.1309 145.671 14.0957C145.671 14.4258 145.531 14.7051 145.252 14.9336C144.998 15.1621 144.681 15.2764 144.3 15.2764C143.716 15.2764 143.094 14.832 142.434 13.9434C137.33 7.16406 130.779 3.77441 122.781 3.77441C121.816 3.77441 120.839 3.83789 119.849 3.96484L119.658 31.0059L119.849 53.9717C120.788 54.1494 121.74 54.2383 122.705 54.2383C125.574 54.2383 128.354 53.7559 131.046 52.791C137.851 50.3789 142.738 45.9482 145.709 39.499C146.979 36.7822 147.728 34.0146 147.956 31.1963H128.075C126.323 31.1455 125.27 31.0566 124.914 30.9297C124.559 30.8027 124.381 30.4727 124.381 29.9395C124.381 29.127 124.99 28.7207 126.209 28.7207L128.494 28.7588H150.47ZM183.719 29.6348V24.9883C183.693 21.7637 183.643 19.7832 183.566 19.0469C183.49 18.3105 183.262 17.6504 182.881 17.0664C181.967 15.6445 179.834 14.9336 176.482 14.9336C171.303 14.9336 167.304 16.5586 164.485 19.8086C163.343 21.1289 162.378 21.7891 161.591 21.7891C161.007 21.7891 160.499 21.5859 160.067 21.1797C159.636 20.7734 159.42 20.3037 159.42 19.7705C159.42 18.1709 161.312 16.5205 165.095 14.8193C168.7 13.1943 173.359 12.3818 179.072 12.3818C188.467 12.3818 195.094 13.8037 198.953 16.6475C200.629 17.8916 201.721 19.2881 202.229 20.8369C202.736 22.3857 202.99 25.1152 202.99 29.0254V44.1455C202.889 46.9385 202.965 49.0459 203.219 50.4678C203.498 51.8643 204.107 53.375 205.047 55H183.719V51.001C181.383 52.6006 179.06 53.8066 176.749 54.6191C174.464 55.4316 172.204 55.8379 169.97 55.8379C166.187 55.8379 162.822 54.7334 159.877 52.5244C156.043 49.6299 154.126 45.8721 154.126 41.251C154.126 37.1631 155.675 33.8623 158.772 31.3486C162.378 28.3779 166.847 26.8926 172.179 26.8926C174.362 26.8926 176.292 27.0957 177.968 27.502C179.644 27.8828 181.561 28.5938 183.719 29.6348ZM183.757 32.377C180.558 30.7773 178.082 29.9775 176.33 29.9775C174.857 29.9775 173.893 30.5615 173.436 31.7295C173.182 32.3643 173.055 34.2051 173.055 37.252V46.3545C173.08 48.3604 173.144 49.5791 173.245 50.0107C173.499 51.1787 174.362 51.7627 175.835 51.7627C177.003 51.7627 178.298 51.4199 179.72 50.7344C181.167 50.0234 182.487 49.0967 183.681 47.9541L183.757 32.377ZM232.621 0.00390625L232.202 12.3057L232.164 13.4863C234.373 13.4863 236.379 13.3975 238.182 13.2197C238.486 13.1943 238.753 13.1816 238.981 13.1816C240.099 13.1816 240.657 13.6895 240.657 14.7051C240.657 15.6445 240.073 16.1143 238.905 16.1143C238.55 16.1143 238.105 16.0889 237.572 16.0381C235.566 15.8857 234.132 15.8096 233.269 15.8096H232.164L232.126 23.1982L232.278 38.0137L232.393 45.9355C232.393 47.7891 232.532 49.084 232.812 49.8203C233.091 50.5566 233.573 50.9248 234.259 50.9248C235.173 50.9248 236.15 50.3916 237.191 49.3252C238.207 48.2588 239.007 46.9512 239.591 45.4023C240.124 43.9297 240.759 43.1934 241.495 43.1934C242.358 43.1934 242.79 43.6758 242.79 44.6406C242.79 45.6055 242.358 46.8115 241.495 48.2588C240.632 49.6807 239.591 50.9248 238.372 51.9912C235.376 54.6064 231.491 55.9141 226.718 55.9141C222.224 55.9141 218.745 54.5557 216.282 51.8389C215.013 50.4678 214.137 48.9443 213.654 47.2686C213.172 45.5674 212.931 43.2188 212.931 40.2227V37.3662L212.969 29.3301V15.6953C212.613 15.6699 212.359 15.6572 212.207 15.6572C211.953 15.6572 211.445 15.6826 210.684 15.7334C210.049 15.7842 209.516 15.8096 209.084 15.8096C207.84 15.8096 207.218 15.3398 207.218 14.4004C207.218 13.4863 207.814 13.0293 209.008 13.0293C209.566 13.0293 209.96 13.042 210.188 13.0674L212.969 13.2578V8.9541C220.484 6.2373 227.035 3.25391 232.621 0.00390625ZM265.527 18.7803C267.965 17.1299 269.958 15.9238 271.507 15.1621C275.315 13.3086 279.086 12.3818 282.818 12.3818C285.51 12.3818 287.935 12.8643 290.093 13.8291C292.251 14.7939 293.851 16.1143 294.892 17.79C296.136 19.7959 296.758 23.4775 296.758 28.835L296.682 34.5098L296.605 42.0127L296.872 55H277.334L277.486 31.4629L277.296 19.4277C277.042 18.1074 276.103 17.4473 274.478 17.4473C273.284 17.4473 271.938 17.8154 270.44 18.5518C268.968 19.2627 267.33 20.3545 265.527 21.8271L265.451 31.3867L265.604 47.9541L265.718 55H246.104L246.18 38.9277V20.6084L246.065 4.76465L246.104 3.0127H265.527V4.0791L265.565 10.5918L265.527 14.6289V18.7803ZM320.447 35.4238V47.2305C320.447 49.5156 320.587 50.9629 320.866 51.5723C321.399 52.7402 322.656 53.3242 324.637 53.3242C327.582 53.3242 330.489 52.5244 333.358 50.9248C336.253 49.2998 338.754 47.0654 340.861 44.2217C341.547 43.2822 342.042 42.6855 342.347 42.4316C342.651 42.1777 342.981 42.0508 343.337 42.0508C343.769 42.0508 344.124 42.2158 344.403 42.5459C344.683 42.8506 344.822 43.2441 344.822 43.7266C344.822 44.793 343.972 46.2275 342.271 48.0303C340.036 50.3408 337.256 52.2197 333.93 53.667C330.629 55.1143 327.404 55.8379 324.256 55.8379C318.848 55.8379 314.074 54.0225 309.936 50.3916C307.523 48.2588 305.67 45.6309 304.375 42.5078C303.232 39.7656 302.661 37.0234 302.661 34.2812C302.661 31.6406 303.169 29 304.185 26.3594C305.2 23.6934 306.597 21.3955 308.374 19.4658C310.431 17.2061 312.868 15.4541 315.687 14.21C318.454 12.9912 321.349 12.3818 324.37 12.3818C329.067 12.3818 333.32 13.7656 337.129 16.5332C343.07 20.8496 346.016 27.1084 345.965 35.3096H337.091L325.665 35.3477L320.447 35.4238ZM330.197 32.9102V21.7891C330.146 19.4023 330.096 17.9805 330.045 17.5234C329.994 17.041 329.816 16.5967 329.512 16.1904C328.801 15.2002 327.354 14.7051 325.17 14.7051C322.936 14.7051 321.539 15.2764 320.98 16.4189C320.625 17.1045 320.447 18.8945 320.447 21.7891V32.9102L325.094 33.0625L330.197 32.9102ZM371.406 25.2168L371.33 39.8418L371.482 55H351.944L351.982 52.9053L352.021 45.1357L352.135 31.1582L351.982 15.6191L351.944 13.4102H371.444V21.2559C374.364 18.1582 376.396 16.2031 377.538 15.3906C380.179 13.5371 382.667 12.6104 385.003 12.6104C386.425 12.6104 387.593 12.915 388.507 13.5244C389.446 14.1338 389.916 14.9082 389.916 15.8477C389.916 16.584 389.637 17.1934 389.078 17.6758C388.52 18.1582 387.821 18.3994 386.983 18.3994C386.45 18.3994 385.854 18.2471 385.193 17.9424C384.076 17.4092 383.149 17.1426 382.413 17.1426C380.585 17.1426 378.82 17.7646 377.119 19.0088C375.418 20.2529 373.514 22.3223 371.406 25.2168ZM96.8066 93.5645L96.6162 105.485L96.502 116.797L96.6162 143H73.3838L73.6123 112.646L73.498 102.324L73.3838 93.5645L68.3564 93.6787L61.1582 93.8311L60.0918 93.8691C58.873 93.8691 58.2637 93.4121 58.2637 92.498C58.2637 91.6855 58.6191 91.2285 59.3301 91.127C59.5332 91.0762 60.1553 91.0381 61.1963 91.0127H107.928C109.553 91.0381 110.518 91.1143 110.822 91.2412C111.33 91.4443 111.584 91.876 111.584 92.5361C111.584 93.3994 110.937 93.8311 109.642 93.8311L106.328 93.7168L97.5684 93.5645H96.8066ZM129.827 100.382C133.915 100.382 137.787 101.512 141.443 103.771C144.82 105.854 147.397 108.697 149.175 112.303C150.749 115.477 151.536 118.841 151.536 122.396C151.536 124.833 151.066 127.283 150.127 129.746C149.213 132.209 147.956 134.393 146.356 136.297C144.122 138.912 141.393 140.88 138.168 142.2C135.527 143.292 132.772 143.838 129.903 143.838C125.104 143.838 120.788 142.416 116.954 139.572C113.958 137.389 111.686 134.583 110.137 131.155C108.842 128.261 108.194 125.201 108.194 121.977C108.194 115.68 110.479 110.449 115.05 106.285C119.341 102.426 124.267 100.458 129.827 100.382ZM128.723 102.857L128.608 141.248C129.396 141.299 129.941 141.324 130.246 141.324C133.775 141.324 137.152 140.334 140.377 138.354C143.475 136.424 145.798 133.859 147.347 130.66C148.565 128.121 149.175 125.328 149.175 122.281C149.175 116.162 146.915 111.198 142.396 107.39C138.739 104.317 134.766 102.781 130.475 102.781C130.119 102.781 129.535 102.807 128.723 102.857ZM187.146 103.048C189.33 104.114 191.158 105.523 192.631 107.275C194.586 109.637 195.563 112.366 195.563 115.464C195.563 117.673 195.005 119.768 193.888 121.748C192.771 123.729 191.209 125.392 189.203 126.737C185.496 129.251 181.027 130.508 175.797 130.508C173.385 130.508 171.163 130.292 169.132 129.86C167.101 129.429 165.247 128.781 163.571 127.918C162.378 128.73 161.781 129.556 161.781 130.394C161.781 131.384 162.454 131.968 163.8 132.146C166.72 132.526 168.726 132.641 169.817 132.488L170.046 132.45H181.434L182.005 132.412C185.813 132.184 188.556 132.818 190.231 134.316C191.526 135.51 192.174 136.906 192.174 138.506C192.174 139.852 191.717 141.07 190.803 142.162C189.279 143.965 187.223 144.866 184.633 144.866C184.15 144.866 183.541 144.841 182.805 144.79C183.211 144.155 183.414 143.66 183.414 143.305C183.414 142.518 182.703 142.124 181.281 142.124C180.062 142.124 177.511 142.391 173.626 142.924C170.909 143.305 168.662 143.495 166.885 143.495C164.092 143.495 161.667 142.898 159.61 141.705C158.417 141.02 157.478 140.08 156.792 138.887C156.106 137.693 155.764 136.398 155.764 135.002C155.764 133.428 156.17 131.993 156.982 130.698C157.82 129.378 159.204 127.994 161.134 126.547C159.331 125.404 157.935 123.919 156.944 122.091C155.954 120.237 155.459 118.231 155.459 116.073C155.459 110.944 158.036 106.856 163.19 103.81C167.05 101.524 171.734 100.382 177.244 100.382C178.463 100.382 179.732 100.445 181.053 100.572C182.855 100.725 184.163 100.801 184.976 100.801C186.981 100.801 188.441 99.9121 189.355 98.1348C189.889 97.0684 190.46 96.5352 191.069 96.5352C191.552 96.5352 191.971 96.7002 192.326 97.0303C192.682 97.335 192.859 97.7158 192.859 98.1729C192.859 99.0869 192.352 99.9883 191.336 100.877C190.32 101.74 188.924 102.464 187.146 103.048ZM172.179 107.237V123.348C172.179 125.277 172.331 126.471 172.636 126.928C173.144 127.664 174.197 128.032 175.797 128.032C177.27 128.032 178.247 127.689 178.729 127.004C179.237 126.293 179.491 124.909 179.491 122.853V107.313C179.491 105.587 179.237 104.432 178.729 103.848C178.247 103.264 177.282 102.972 175.835 102.972C174.388 102.972 173.41 103.264 172.902 103.848C172.42 104.432 172.179 105.562 172.179 107.237ZM216.32 123.424V135.23C216.32 137.516 216.46 138.963 216.739 139.572C217.272 140.74 218.529 141.324 220.51 141.324C223.455 141.324 226.362 140.524 229.231 138.925C232.126 137.3 234.627 135.065 236.734 132.222C237.42 131.282 237.915 130.686 238.22 130.432C238.524 130.178 238.854 130.051 239.21 130.051C239.642 130.051 239.997 130.216 240.276 130.546C240.556 130.851 240.695 131.244 240.695 131.727C240.695 132.793 239.845 134.228 238.144 136.03C235.909 138.341 233.129 140.22 229.803 141.667C226.502 143.114 223.277 143.838 220.129 143.838C214.721 143.838 209.947 142.022 205.809 138.392C203.396 136.259 201.543 133.631 200.248 130.508C199.105 127.766 198.534 125.023 198.534 122.281C198.534 119.641 199.042 117 200.058 114.359C201.073 111.693 202.47 109.396 204.247 107.466C206.304 105.206 208.741 103.454 211.56 102.21C214.327 100.991 217.222 100.382 220.243 100.382C224.94 100.382 229.193 101.766 233.002 104.533C238.943 108.85 241.889 115.108 241.838 123.31H232.964L221.538 123.348L216.32 123.424ZM226.07 120.91V109.789C226.02 107.402 225.969 105.98 225.918 105.523C225.867 105.041 225.689 104.597 225.385 104.19C224.674 103.2 223.227 102.705 221.043 102.705C218.809 102.705 217.412 103.276 216.854 104.419C216.498 105.104 216.32 106.895 216.32 109.789V120.91L220.967 121.062L226.07 120.91ZM267.736 88.0039L267.317 100.306L267.279 101.486C269.488 101.486 271.494 101.397 273.297 101.22C273.602 101.194 273.868 101.182 274.097 101.182C275.214 101.182 275.772 101.689 275.772 102.705C275.772 103.645 275.188 104.114 274.021 104.114C273.665 104.114 273.221 104.089 272.688 104.038C270.682 103.886 269.247 103.81 268.384 103.81H267.279L267.241 111.198L267.394 126.014L267.508 133.936C267.508 135.789 267.647 137.084 267.927 137.82C268.206 138.557 268.688 138.925 269.374 138.925C270.288 138.925 271.266 138.392 272.307 137.325C273.322 136.259 274.122 134.951 274.706 133.402C275.239 131.93 275.874 131.193 276.61 131.193C277.474 131.193 277.905 131.676 277.905 132.641C277.905 133.605 277.474 134.812 276.61 136.259C275.747 137.681 274.706 138.925 273.487 139.991C270.491 142.606 266.606 143.914 261.833 143.914C257.339 143.914 253.86 142.556 251.397 139.839C250.128 138.468 249.252 136.944 248.77 135.269C248.287 133.567 248.046 131.219 248.046 128.223V125.366L248.084 117.33V103.695C247.729 103.67 247.475 103.657 247.322 103.657C247.068 103.657 246.561 103.683 245.799 103.733C245.164 103.784 244.631 103.81 244.199 103.81C242.955 103.81 242.333 103.34 242.333 102.4C242.333 101.486 242.93 101.029 244.123 101.029C244.682 101.029 245.075 101.042 245.304 101.067L248.084 101.258V96.9541C255.6 94.2373 262.15 91.2539 267.736 88.0039ZM300.643 106.78C303.08 105.13 305.073 103.924 306.622 103.162C310.431 101.309 314.201 100.382 317.934 100.382C320.625 100.382 323.05 100.864 325.208 101.829C327.366 102.794 328.966 104.114 330.007 105.79C331.251 107.796 331.873 111.478 331.873 116.835L331.797 122.51L331.721 130.013L331.987 143H312.449L312.602 119.463L312.411 107.428C312.157 106.107 311.218 105.447 309.593 105.447C308.399 105.447 307.054 105.815 305.556 106.552C304.083 107.263 302.445 108.354 300.643 109.827L300.566 119.387L300.719 135.954L300.833 143H281.219L281.295 126.928V108.608L281.181 92.7646L281.219 91.0127H300.643V92.0791L300.681 98.5918L300.643 102.629V106.78ZM355.562 123.424V135.23C355.562 137.516 355.702 138.963 355.981 139.572C356.515 140.74 357.771 141.324 359.752 141.324C362.697 141.324 365.604 140.524 368.474 138.925C371.368 137.3 373.869 135.065 375.977 132.222C376.662 131.282 377.157 130.686 377.462 130.432C377.767 130.178 378.097 130.051 378.452 130.051C378.884 130.051 379.239 130.216 379.519 130.546C379.798 130.851 379.938 131.244 379.938 131.727C379.938 132.793 379.087 134.228 377.386 136.03C375.151 138.341 372.371 140.22 369.045 141.667C365.744 143.114 362.52 143.838 359.371 143.838C353.963 143.838 349.189 142.022 345.051 138.392C342.639 136.259 340.785 133.631 339.49 130.508C338.348 127.766 337.776 125.023 337.776 122.281C337.776 119.641 338.284 117 339.3 114.359C340.315 111.693 341.712 109.396 343.489 107.466C345.546 105.206 347.983 103.454 350.802 102.21C353.569 100.991 356.464 100.382 359.485 100.382C364.183 100.382 368.436 101.766 372.244 104.533C378.186 108.85 381.131 115.108 381.08 123.31H372.206L360.78 123.348L355.562 123.424ZM365.312 120.91V109.789C365.262 107.402 365.211 105.98 365.16 105.523C365.109 105.041 364.932 104.597 364.627 104.19C363.916 103.2 362.469 102.705 360.285 102.705C358.051 102.705 356.654 103.276 356.096 104.419C355.74 105.104 355.562 106.895 355.562 109.789V120.91L360.209 121.062L365.312 120.91ZM406.521 113.217L406.445 127.842L406.598 143H387.06L387.098 140.905L387.136 133.136L387.25 119.158L387.098 103.619L387.06 101.41H406.56V109.256C409.479 106.158 411.511 104.203 412.653 103.391C415.294 101.537 417.782 100.61 420.118 100.61C421.54 100.61 422.708 100.915 423.622 101.524C424.562 102.134 425.031 102.908 425.031 103.848C425.031 104.584 424.752 105.193 424.193 105.676C423.635 106.158 422.937 106.399 422.099 106.399C421.565 106.399 420.969 106.247 420.309 105.942C419.191 105.409 418.265 105.143 417.528 105.143C415.7 105.143 413.936 105.765 412.234 107.009C410.533 108.253 408.629 110.322 406.521 113.217ZM42.9912 208.377C44.8193 209.697 46.1777 211.145 47.0664 212.719C47.9805 214.268 48.4375 215.943 48.4375 217.746C48.4375 220.666 47.3076 223.357 45.0479 225.82C42.2803 228.867 38.1162 230.518 32.5557 230.771C29.4834 230.924 25.167 231 19.6064 231H0.753906L0.791992 229.21L0.868164 221.821L0.982422 207.272L0.830078 191.429L0.753906 179.013H21.168C26.2715 179.013 29.7754 179.102 31.6797 179.279C33.6094 179.432 35.5898 179.825 37.6211 180.46C39.7793 181.146 41.7979 182.148 43.6768 183.469C45.5557 184.789 47.0156 186.236 48.0566 187.811C49.6816 190.273 50.4941 193.028 50.4941 196.075C50.4941 198.817 49.8213 201.293 48.4756 203.502C47.1299 205.711 45.3018 207.336 42.9912 208.377ZM39.9062 209.367C38.8145 209.596 37.7988 209.71 36.8594 209.71C34.8535 209.71 33.2285 209.38 31.9844 208.72C30.7656 208.06 30.1562 207.196 30.1562 206.13C30.1562 205.546 30.3594 205.254 30.7656 205.254C31.0703 205.254 31.4893 205.381 32.0225 205.635C33.7744 206.523 35.6787 206.968 37.7354 206.968C41.4678 206.968 44.2861 205.495 46.1904 202.55C47.4092 200.696 48.0186 198.576 48.0186 196.189C48.0186 192.559 46.6094 189.448 43.791 186.858C41.7852 184.979 39.3857 183.621 36.5928 182.783C33.8252 181.945 30.3467 181.526 26.1572 181.526H24.0625L23.834 204.378L24.0625 228.486L27.4902 228.524C31.2734 228.524 34.2188 228.321 36.3262 227.915C38.4336 227.483 40.1855 226.76 41.582 225.744C44.4766 223.611 45.9238 220.92 45.9238 217.67C45.9238 216.02 45.416 214.509 44.4004 213.138C43.4102 211.741 41.9121 210.484 39.9062 209.367ZM75.707 188.382C79.7949 188.382 83.667 189.512 87.3232 191.771C90.7002 193.854 93.2773 196.697 95.0547 200.303C96.6289 203.477 97.416 206.841 97.416 210.396C97.416 212.833 96.9463 215.283 96.0068 217.746C95.0928 220.209 93.8359 222.393 92.2363 224.297C90.002 226.912 87.2725 228.88 84.0479 230.2C81.4072 231.292 78.6523 231.838 75.7832 231.838C70.9844 231.838 66.668 230.416 62.834 227.572C59.8379 225.389 57.5654 222.583 56.0166 219.155C54.7217 216.261 54.0742 213.201 54.0742 209.977C54.0742 203.68 56.3594 198.449 60.9297 194.285C65.2207 190.426 70.1465 188.458 75.707 188.382ZM74.6025 190.857L74.4883 229.248C75.2754 229.299 75.8213 229.324 76.126 229.324C79.6553 229.324 83.0322 228.334 86.2568 226.354C89.3545 224.424 91.6777 221.859 93.2266 218.66C94.4453 216.121 95.0547 213.328 95.0547 210.281C95.0547 204.162 92.7949 199.198 88.2754 195.39C84.6191 192.317 80.6455 190.781 76.3545 190.781C75.999 190.781 75.415 190.807 74.6025 190.857ZM130.437 205.635V200.988C130.411 197.764 130.36 195.783 130.284 195.047C130.208 194.311 129.979 193.65 129.599 193.066C128.685 191.645 126.552 190.934 123.2 190.934C118.021 190.934 114.021 192.559 111.203 195.809C110.061 197.129 109.096 197.789 108.309 197.789C107.725 197.789 107.217 197.586 106.785 197.18C106.354 196.773 106.138 196.304 106.138 195.771C106.138 194.171 108.029 192.521 111.812 190.819C115.418 189.194 120.077 188.382 125.79 188.382C135.185 188.382 141.812 189.804 145.671 192.647C147.347 193.892 148.438 195.288 148.946 196.837C149.454 198.386 149.708 201.115 149.708 205.025V220.146C149.606 222.938 149.683 225.046 149.937 226.468C150.216 227.864 150.825 229.375 151.765 231H130.437V227.001C128.101 228.601 125.777 229.807 123.467 230.619C121.182 231.432 118.922 231.838 116.688 231.838C112.904 231.838 109.54 230.733 106.595 228.524C102.761 225.63 100.844 221.872 100.844 217.251C100.844 213.163 102.393 209.862 105.49 207.349C109.096 204.378 113.564 202.893 118.896 202.893C121.08 202.893 123.01 203.096 124.686 203.502C126.361 203.883 128.278 204.594 130.437 205.635ZM130.475 208.377C127.275 206.777 124.8 205.978 123.048 205.978C121.575 205.978 120.61 206.562 120.153 207.729C119.899 208.364 119.772 210.205 119.772 213.252V222.354C119.798 224.36 119.861 225.579 119.963 226.011C120.217 227.179 121.08 227.763 122.553 227.763C123.721 227.763 125.016 227.42 126.438 226.734C127.885 226.023 129.205 225.097 130.398 223.954L130.475 208.377ZM177.815 201.217L177.739 215.842L177.892 231H158.354L158.392 228.905L158.43 221.136L158.544 207.158L158.392 191.619L158.354 189.41H177.854V197.256C180.773 194.158 182.805 192.203 183.947 191.391C186.588 189.537 189.076 188.61 191.412 188.61C192.834 188.61 194.002 188.915 194.916 189.524C195.855 190.134 196.325 190.908 196.325 191.848C196.325 192.584 196.046 193.193 195.487 193.676C194.929 194.158 194.23 194.399 193.393 194.399C192.859 194.399 192.263 194.247 191.603 193.942C190.485 193.409 189.559 193.143 188.822 193.143C186.994 193.143 185.229 193.765 183.528 195.009C181.827 196.253 179.923 198.322 177.815 201.217ZM246.637 179.013L246.561 197.637L246.522 210.814L246.637 229.286V231H227.175V226.049C225.093 228.131 223.074 229.616 221.119 230.505C219.189 231.394 216.993 231.838 214.53 231.838C209.706 231.838 205.415 230.061 201.657 226.506C197.011 222.113 194.688 216.54 194.688 209.786C194.688 203.235 196.935 197.916 201.429 193.828C205.415 190.197 209.896 188.382 214.873 188.382C217.082 188.382 219.215 188.801 221.271 189.639C223.354 190.477 225.359 191.733 227.289 193.409L227.137 179.013H246.637ZM227.289 196.532C225.309 194.729 223.519 193.384 221.919 192.495C220.345 191.606 218.948 191.162 217.729 191.162C216.765 191.162 216.104 191.518 215.749 192.229C215.419 192.914 215.254 194.222 215.254 196.151L215.292 197.827V223.421C215.317 225.478 215.406 226.76 215.559 227.268C215.863 228.359 216.6 228.905 217.768 228.905C219.037 228.905 220.383 228.436 221.805 227.496C223.227 226.531 225.055 224.868 227.289 222.507V196.532ZM285.065 191.048C287.249 192.114 289.077 193.523 290.55 195.275C292.505 197.637 293.482 200.366 293.482 203.464C293.482 205.673 292.924 207.768 291.807 209.748C290.689 211.729 289.128 213.392 287.122 214.737C283.415 217.251 278.946 218.508 273.716 218.508C271.304 218.508 269.082 218.292 267.051 217.86C265.02 217.429 263.166 216.781 261.49 215.918C260.297 216.73 259.7 217.556 259.7 218.394C259.7 219.384 260.373 219.968 261.719 220.146C264.639 220.526 266.645 220.641 267.736 220.488L267.965 220.45H279.353L279.924 220.412C283.732 220.184 286.475 220.818 288.15 222.316C289.445 223.51 290.093 224.906 290.093 226.506C290.093 227.852 289.636 229.07 288.722 230.162C287.198 231.965 285.142 232.866 282.552 232.866C282.069 232.866 281.46 232.841 280.724 232.79C281.13 232.155 281.333 231.66 281.333 231.305C281.333 230.518 280.622 230.124 279.2 230.124C277.981 230.124 275.43 230.391 271.545 230.924C268.828 231.305 266.581 231.495 264.804 231.495C262.011 231.495 259.586 230.898 257.529 229.705C256.336 229.02 255.396 228.08 254.711 226.887C254.025 225.693 253.683 224.398 253.683 223.002C253.683 221.428 254.089 219.993 254.901 218.698C255.739 217.378 257.123 215.994 259.053 214.547C257.25 213.404 255.854 211.919 254.863 210.091C253.873 208.237 253.378 206.231 253.378 204.073C253.378 198.944 255.955 194.856 261.109 191.81C264.969 189.524 269.653 188.382 275.163 188.382C276.382 188.382 277.651 188.445 278.972 188.572C280.774 188.725 282.082 188.801 282.895 188.801C284.9 188.801 286.36 187.912 287.274 186.135C287.808 185.068 288.379 184.535 288.988 184.535C289.471 184.535 289.89 184.7 290.245 185.03C290.601 185.335 290.778 185.716 290.778 186.173C290.778 187.087 290.271 187.988 289.255 188.877C288.239 189.74 286.843 190.464 285.065 191.048ZM270.098 195.237V211.348C270.098 213.277 270.25 214.471 270.555 214.928C271.062 215.664 272.116 216.032 273.716 216.032C275.188 216.032 276.166 215.689 276.648 215.004C277.156 214.293 277.41 212.909 277.41 210.853V195.313C277.41 193.587 277.156 192.432 276.648 191.848C276.166 191.264 275.201 190.972 273.754 190.972C272.307 190.972 271.329 191.264 270.821 191.848C270.339 192.432 270.098 193.562 270.098 195.237ZM325.36 205.635V200.988C325.335 197.764 325.284 195.783 325.208 195.047C325.132 194.311 324.903 193.65 324.522 193.066C323.608 191.645 321.476 190.934 318.124 190.934C312.944 190.934 308.945 192.559 306.127 195.809C304.984 197.129 304.02 197.789 303.232 197.789C302.648 197.789 302.141 197.586 301.709 197.18C301.277 196.773 301.062 196.304 301.062 195.771C301.062 194.171 302.953 192.521 306.736 190.819C310.342 189.194 315.001 188.382 320.714 188.382C330.108 188.382 336.735 189.804 340.595 192.647C342.271 193.892 343.362 195.288 343.87 196.837C344.378 198.386 344.632 201.115 344.632 205.025V220.146C344.53 222.938 344.606 225.046 344.86 226.468C345.14 227.864 345.749 229.375 346.688 231H325.36V227.001C323.024 228.601 320.701 229.807 318.391 230.619C316.105 231.432 313.846 231.838 311.611 231.838C307.828 231.838 304.464 230.733 301.519 228.524C297.685 225.63 295.768 221.872 295.768 217.251C295.768 213.163 297.316 209.862 300.414 207.349C304.02 204.378 308.488 202.893 313.82 202.893C316.004 202.893 317.934 203.096 319.609 203.502C321.285 203.883 323.202 204.594 325.36 205.635ZM325.398 208.377C322.199 206.777 319.724 205.978 317.972 205.978C316.499 205.978 315.534 206.562 315.077 207.729C314.823 208.364 314.696 210.205 314.696 213.252V222.354C314.722 224.36 314.785 225.579 314.887 226.011C315.141 227.179 316.004 227.763 317.477 227.763C318.645 227.763 319.939 227.42 321.361 226.734C322.809 226.023 324.129 225.097 325.322 223.954L325.398 208.377ZM402.789 195.58C406.09 193.041 409.162 191.213 412.006 190.096C414.875 188.953 417.896 188.382 421.07 188.382C426.885 188.382 430.935 190.248 433.22 193.98C433.88 195.098 434.337 196.393 434.591 197.865C434.845 199.312 434.972 201.471 434.972 204.34L434.819 214.395V216.756L435.01 229.438L435.048 231H415.51L415.662 218.965L415.853 206.854L415.814 201.94C415.789 200.138 415.789 199.084 415.814 198.779C415.84 196.773 415.624 195.39 415.167 194.628C414.71 193.866 413.885 193.485 412.691 193.485C411.422 193.485 410.025 193.854 408.502 194.59C407.004 195.326 405.379 196.443 403.627 197.941C403.754 198.932 403.817 200.354 403.817 202.207L403.741 211.729L403.665 222.431C403.665 225.579 403.729 228.436 403.855 231H384.355L384.432 222.697L384.546 204.797C384.546 198.906 384.47 195.656 384.317 195.047C384.038 193.955 383.124 193.409 381.575 193.409C380.407 193.409 379.087 193.777 377.614 194.514C376.167 195.225 374.555 196.316 372.777 197.789L372.625 213.899L372.815 231H353.277V229.477L353.354 222.545L353.392 213.1L353.43 203.959L353.277 189.41H372.777V194.742C375.621 192.609 378.452 191.022 381.271 189.981C384.114 188.915 386.945 188.382 389.764 188.382C394.004 188.382 397.419 189.448 400.009 191.581C401.05 192.419 401.977 193.752 402.789 195.58ZM458.585 211.424V223.23C458.585 225.516 458.725 226.963 459.004 227.572C459.537 228.74 460.794 229.324 462.774 229.324C465.72 229.324 468.627 228.524 471.496 226.925C474.391 225.3 476.892 223.065 478.999 220.222C479.685 219.282 480.18 218.686 480.484 218.432C480.789 218.178 481.119 218.051 481.475 218.051C481.906 218.051 482.262 218.216 482.541 218.546C482.82 218.851 482.96 219.244 482.96 219.727C482.96 220.793 482.109 222.228 480.408 224.03C478.174 226.341 475.394 228.22 472.067 229.667C468.767 231.114 465.542 231.838 462.394 231.838C456.985 231.838 452.212 230.022 448.073 226.392C445.661 224.259 443.808 221.631 442.513 218.508C441.37 215.766 440.799 213.023 440.799 210.281C440.799 207.641 441.307 205 442.322 202.359C443.338 199.693 444.734 197.396 446.512 195.466C448.568 193.206 451.006 191.454 453.824 190.21C456.592 188.991 459.486 188.382 462.508 188.382C467.205 188.382 471.458 189.766 475.267 192.533C481.208 196.85 484.153 203.108 484.103 211.31H475.229L463.803 211.348L458.585 211.424ZM468.335 208.91V197.789C468.284 195.402 468.233 193.98 468.183 193.523C468.132 193.041 467.954 192.597 467.649 192.19C466.938 191.2 465.491 190.705 463.308 190.705C461.073 190.705 459.677 191.276 459.118 192.419C458.763 193.104 458.585 194.895 458.585 197.789V208.91L463.231 209.062L468.335 208.91Z" fill="#EA5C5C"/>
</svg>
