<svg width="43" height="27" viewBox="0 0 43 27" fill="none" xmlns="http://www.w3.org/2000/svg">
<path d="M29.3182 11.5714C32.5627 11.5714 35.1623 8.98714 35.1623 5.78571C35.1623 2.58429 32.5627 0 29.3182 0C26.0736 0 23.4545 2.58429 23.4545 5.78571C23.4545 8.98714 26.0736 11.5714 29.3182 11.5714ZM13.6818 11.5714C16.9264 11.5714 19.5259 8.98714 19.5259 5.78571C19.5259 2.58429 16.9264 0 13.6818 0C10.4373 0 7.81818 2.58429 7.81818 5.78571C7.81818 8.98714 10.4373 11.5714 13.6818 11.5714ZM13.6818 15.4286C9.12773 15.4286 0 17.685 0 22.1786V25.0714C0 26.1321 0.879545 27 1.95455 27H25.4091C26.4841 27 27.3636 26.1321 27.3636 25.0714V22.1786C27.3636 17.685 18.2359 15.4286 13.6818 15.4286ZM29.3182 15.4286C28.7514 15.4286 28.1064 15.4671 27.4223 15.525C27.4614 15.5443 27.4809 15.5829 27.5005 15.6021C29.7286 17.2029 31.2727 19.3436 31.2727 22.1786V25.0714C31.2727 25.7464 31.1359 26.4021 30.9209 27H41.0455C42.1205 27 43 26.1321 43 25.0714V22.1786C43 17.685 33.8723 15.4286 29.3182 15.4286Z" fill="#555555"/>
</svg>
