<svg width="28" height="27" viewBox="0 0 28 27" fill="none" xmlns="http://www.w3.org/2000/svg">
<path d="M20.7502 1.80885C22.7864 2.98451 24.4803 4.67156 25.6641 6.70301C26.8479 8.73445 27.4806 11.0398 27.4996 13.391C27.5186 15.7421 26.9232 18.0574 25.7723 20.1077C24.6215 22.158 22.9552 23.8722 20.9382 25.0806C18.9213 26.289 16.6237 26.9497 14.273 26.9972C11.9223 27.0448 9.59985 26.4776 7.53569 25.3518C5.47152 24.226 3.73717 22.5807 2.50432 20.5786C1.27148 18.5765 0.582904 16.2872 0.50675 13.9373L0.5 13.4999L0.50675 13.0625C0.582355 10.731 1.2608 8.4589 2.47594 6.46769C3.69108 4.47649 5.40144 2.83411 7.44029 1.7007C9.47914 0.567277 11.7769 -0.0185096 14.1095 0.000445832C16.4422 0.0194012 18.7301 0.642452 20.7502 1.80885ZM14.0002 5.39985C13.6695 5.3999 13.3504 5.52129 13.1033 5.74102C12.8562 5.96074 12.6983 6.26352 12.6596 6.5919L12.6501 6.74985V13.4999L12.6623 13.6767C12.6931 13.9109 12.7848 14.133 12.9283 14.3207L13.0457 14.4557L17.0958 18.5057L17.2227 18.6164C17.4594 18.8 17.7506 18.8997 18.0502 18.8997C18.3499 18.8997 18.641 18.8 18.8778 18.6164L19.0047 18.5043L19.1167 18.3774C19.3004 18.1406 19.4001 17.8495 19.4001 17.5499C19.4001 17.2502 19.3004 16.9591 19.1167 16.7223L19.0047 16.5954L15.3502 12.9396V6.74985L15.3407 6.5919C15.302 6.26352 15.1442 5.96074 14.8971 5.74102C14.65 5.52129 14.3308 5.3999 14.0002 5.39985Z" fill="#555555"/>
</svg>
