<svg width="13" height="13" viewBox="0 0 13 13" fill="none" xmlns="http://www.w3.org/2000/svg">
<path d="M6.22461 5.31641C6.82565 5.31649 7.40214 5.55546 7.82715 5.98047L7.97754 6.14648C8.30808 6.54978 8.49114 7.057 8.49121 7.58301C8.49121 8.10896 8.30795 8.61621 7.97754 9.01953L7.82715 9.18652C7.40216 9.61143 6.82557 9.84952 6.22461 9.84961C5.69873 9.84961 5.19138 9.66724 4.78809 9.33691L4.62109 9.18652C4.19601 8.76144 3.95801 8.18416 3.95801 7.58301C3.95809 6.98205 4.19619 6.40546 4.62109 5.98047C5.04618 5.55539 5.62345 5.31641 6.22461 5.31641ZM6.22461 3.15039C8.32952 3.15048 9.71237 4.06187 10.5566 4.9834L10.7217 5.17188C11.0426 5.55511 11.3148 5.97664 11.5322 6.42676L11.6367 6.6543V6.65625L11.6865 6.77832L11.6885 6.78125L11.6953 6.80957C11.6972 6.81781 11.6999 6.82787 11.7021 6.83887C11.7067 6.86098 11.7125 6.88955 11.7178 6.91602H11.7168L11.7393 7.02148H11.7383C11.7385 7.02266 11.7399 7.02381 11.7402 7.02539C11.7411 7.02957 11.7421 7.0352 11.7432 7.04199C11.7453 7.05552 11.7472 7.07419 11.748 7.09668C11.7497 7.14153 11.7454 7.20337 11.7236 7.27148C11.684 7.39556 11.5893 7.52697 11.3926 7.61523L11.3018 7.65039C11.1813 7.69052 11.0525 7.69373 10.9316 7.66113L10.8135 7.61621C10.6615 7.5407 10.5456 7.40783 10.4912 7.24707L10.4854 7.23145V7.22852L10.4541 7.14941V7.15039C10.2457 6.67369 9.96054 6.23342 9.61035 5.84863V5.84766C8.96492 5.14666 7.90998 4.43368 6.22461 4.43359C4.64345 4.43359 3.6176 5.06072 2.96387 5.71875L2.83789 5.85059C2.48793 6.23498 2.20263 6.67419 1.99414 7.15039L1.96387 7.23047L1.95605 7.24707L1.95703 7.24805C1.89965 7.40472 1.78309 7.533 1.63281 7.60547C1.5199 7.6598 1.394 7.67998 1.27148 7.66406L1.15039 7.63574C1.03187 7.59603 0.928213 7.52327 0.851562 7.42676L0.78418 7.32227C0.707548 7.17395 0.691875 7.00157 0.740234 6.8418L0.741211 6.83887L0.811523 6.65527H0.810547C0.854777 6.55023 0.920538 6.40512 1.00977 6.23438L1.16504 5.95898C1.31153 5.7146 1.50082 5.43673 1.74121 5.15332L1.8916 4.98242C2.73593 4.06088 4.1196 3.15039 6.22461 3.15039Z" fill="#AAAAAA" stroke="#AAAAAA" stroke-width="0.2"/>
</svg>
