<svg width="14" height="14" viewBox="0 0 14 14" fill="none" xmlns="http://www.w3.org/2000/svg">
<path d="M11.1248 7.66621L7.82488 10.9667C7.6061 11.1854 7.3094 11.3083 7.00005 11.3083C6.69069 11.3083 6.39399 11.1854 6.17521 10.9667L2.8753 7.66679C2.60251 7.39639 2.38582 7.07477 2.23767 6.72039C2.08952 6.36602 2.01282 5.98587 2.01198 5.60177C2.01114 5.21768 2.08617 4.8372 2.23277 4.48218C2.37937 4.12716 2.59465 3.80459 2.86624 3.53299C3.13784 3.26139 3.46041 3.04612 3.81543 2.89952C4.17045 2.75292 4.55093 2.67789 4.93502 2.67873C5.31912 2.67957 5.69927 2.75627 6.05364 2.90442C6.40802 3.05257 6.72964 3.26926 7.00005 3.54204C7.54929 3.00647 8.28743 2.70885 9.05456 2.71365C9.82169 2.71846 10.556 3.02531 11.0985 3.56772C11.641 4.11014 11.948 4.84445 11.9529 5.61158C11.9578 6.37871 11.6603 7.11689 11.1248 7.66621Z" fill="#EA5C5C"/>
<path d="M4.93678 2.02833C5.40624 2.0294 5.87081 2.12366 6.30396 2.3047C6.55284 2.40874 6.78793 2.5418 7.00611 2.69825C7.60498 2.28359 8.32093 2.05886 9.05885 2.06349C9.99686 2.06942 10.8945 2.44516 11.5579 3.10841C12.2212 3.7717 12.5968 4.66936 12.6028 5.60743C12.6088 6.54552 12.2449 7.44839 11.5901 8.12013L8.28443 11.4268C7.94382 11.7672 7.48181 11.958 7.00025 11.958C6.57871 11.958 6.17214 11.8117 5.84889 11.5469L5.71607 11.4268L2.41529 8.12599C2.08309 7.79592 1.81859 7.4028 1.63795 6.97071C1.45691 6.53756 1.36265 6.07298 1.36158 5.60352C1.36055 5.13391 1.45288 4.66846 1.63209 4.23438C1.81136 3.80024 2.07438 3.40538 2.4065 3.07325C2.73863 2.74113 3.1335 2.47811 3.56764 2.29884C4.00171 2.11962 4.46716 2.0273 4.93678 2.02833ZM4.93385 3.32911C4.63545 3.32846 4.33955 3.38616 4.06373 3.50001C3.78783 3.61394 3.53652 3.78113 3.32545 3.9922C3.11438 4.20327 2.94719 4.45458 2.83326 4.73048C2.71941 5.0063 2.66171 5.3022 2.66236 5.60059C2.66305 5.899 2.72207 6.19442 2.83717 6.46974C2.92346 6.67615 3.03982 6.86827 3.18189 7.04005L3.33326 7.20509L6.63502 10.5068L6.71314 10.5713C6.79746 10.6276 6.89737 10.6582 7.00025 10.6582C7.13718 10.6582 7.26865 10.6037 7.36549 10.5068L10.6594 7.2129C11.0755 6.78611 11.3067 6.21222 11.303 5.61622C11.2992 5.02005 11.0605 4.44889 10.6389 4.02735C10.2173 3.60583 9.64622 3.36703 9.05006 3.36329C8.52846 3.36012 8.0242 3.53728 7.62037 3.86036L7.45338 4.00782C7.19787 4.25651 6.78947 4.25319 6.53834 4.00001C6.3282 3.78802 6.07839 3.61905 5.80299 3.50391C5.52767 3.38882 5.23225 3.3298 4.93385 3.32911Z" fill="#EA5C5C"/>
</svg>
