<svg width="12" height="12" viewBox="0 0 12 12" fill="none" xmlns="http://www.w3.org/2000/svg">
<path d="M6.40332 0.875L6.6377 0.880859C7.80559 0.940736 8.91337 1.44465 9.74316 2.29883C10.6281 3.20987 11.1247 4.44553 11.125 5.73242L11.1191 5.99707C11.0897 6.6143 10.9568 7.2226 10.7266 7.79492C10.4635 8.44897 10.0774 9.04399 9.59082 9.54492C9.10438 10.0456 8.52661 10.4427 7.89062 10.7139C7.33378 10.9512 6.74149 11.0879 6.14062 11.1182L5.88281 11.125H1.42773C1.31246 11.1251 1.19988 11.0886 1.10645 11.0205C1.01329 10.9526 0.943828 10.8566 0.90625 10.7471C0.868737 10.6374 0.864597 10.518 0.895508 10.4062C0.926497 10.2945 0.991145 10.1947 1.08008 10.1211L2.20312 9.19238L2.20996 9.18066C2.21127 9.17546 2.21087 9.16985 2.20898 9.16504V9.16406L1.67871 7.82227C0.367809 4.50963 2.73336 0.875 6.2207 0.875H6.40332ZM6.2207 2.00488C3.52679 2.00488 1.68101 4.81793 2.70215 7.39844L3.2334 8.74121L3.28711 8.91699C3.32701 9.09582 3.32443 9.28264 3.2793 9.46191C3.22794 9.66576 3.12089 9.84854 2.97461 9.99512H5.88281L6.08594 9.99023C6.55931 9.96639 7.02584 9.85894 7.46484 9.67188C7.96664 9.45798 8.42321 9.14379 8.80762 8.74805C9.19189 8.35242 9.49693 7.8826 9.70508 7.36523C9.9132 6.84779 10.0206 6.29267 10.0205 5.73242L10.0156 5.54688C9.9709 4.62479 9.5952 3.75067 8.95898 3.0957C8.32296 2.44099 7.47566 2.05571 6.58301 2.00977L6.40332 2.00488H6.2207Z" fill="#AAAAAA" stroke="#AAAAAA" stroke-width="0.25"/>
</svg>
