<svg width="12" height="10" viewBox="0 0 12 10" fill="none" xmlns="http://www.w3.org/2000/svg">
<path d="M10.1247 5.6662L6.82481 8.9667C6.60603 9.18542 6.30933 9.30829 5.99998 9.30829C5.69062 9.30829 5.39392 9.18542 5.17514 8.9667L1.87523 5.66678C1.60244 5.39638 1.38575 5.07476 1.2376 4.72038C1.08945 4.36601 1.01275 3.98586 1.01191 3.60176C1.01107 3.21767 1.0861 2.83719 1.2327 2.48217C1.3793 2.12715 1.59458 1.80458 1.86617 1.53298C2.13777 1.26139 2.46034 1.04611 2.81536 0.899508C3.17038 0.75291 3.55086 0.677877 3.93496 0.678718C4.31905 0.679559 4.6992 0.756257 5.05357 0.90441C5.40795 1.05256 5.72957 1.26925 5.99998 1.54203C6.54922 1.00646 7.28736 0.708839 8.05449 0.713646C8.82162 0.718453 9.55597 1.0253 10.0985 1.56772C10.641 2.11013 10.9479 2.84444 10.9528 3.61157C10.9577 4.3787 10.6602 5.11688 10.1247 5.6662Z" stroke="#AAAAAA" stroke-width="1.3" stroke-linecap="round" stroke-linejoin="round"/>
</svg>
