<svg width="16" height="17" viewBox="0 0 16 17" fill="none" xmlns="http://www.w3.org/2000/svg">
<path d="M11.5283 4.02876C11.7886 3.76841 12.2107 3.76841 12.471 4.02876C12.7313 4.28911 12.7313 4.71114 12.471 4.97147L8.94235 8.50013L12.471 12.0288L12.5166 12.0796C12.7301 12.3414 12.7151 12.7274 12.471 12.9715C12.2269 13.2156 11.8409 13.2306 11.5791 13.0171L11.5283 12.9715L7.99964 9.44284L4.47098 12.9715C4.21065 13.2318 3.78862 13.2318 3.52827 12.9715C3.26792 12.7111 3.26792 12.2891 3.52827 12.0288L7.05693 8.50013L3.52827 4.97147L3.4827 4.92069C3.26913 4.65884 3.28419 4.27284 3.52827 4.02876C3.77235 3.78468 4.15835 3.76962 4.4202 3.98319L4.47098 4.02876L7.99964 7.55741L11.5283 4.02876Z" fill="#555555"/>
</svg>
