<svg width="17" height="17" viewBox="0 0 17 17" fill="none" xmlns="http://www.w3.org/2000/svg">
<path d="M3.16659 14.1623C2.79992 14.1623 2.48614 14.0318 2.22525 13.7709C1.96436 13.51 1.8337 13.196 1.83325 12.8289V4.82894C1.83325 4.46227 1.96392 4.14849 2.22525 3.88761C2.48659 3.62672 2.80036 3.49605 3.16659 3.49561H13.8333C14.1999 3.49561 14.5139 3.62627 14.7753 3.88761C15.0366 4.14894 15.167 4.46272 15.1666 4.82894V12.8289C15.1666 13.1956 15.0361 13.5096 14.7753 13.7709C14.5144 14.0323 14.2004 14.1627 13.8333 14.1623H3.16659ZM8.49992 9.37894C8.55547 9.37894 8.61392 9.37049 8.67525 9.3536C8.73659 9.33672 8.79481 9.31183 8.84992 9.27894L13.5666 6.32894C13.6555 6.27338 13.7221 6.20405 13.7666 6.12094C13.811 6.03783 13.8333 5.94605 13.8333 5.84561C13.8333 5.62338 13.7388 5.45672 13.5499 5.34561C13.361 5.23449 13.1666 5.24005 12.9666 5.36227L8.49992 8.16227L4.03325 5.36227C3.83325 5.24005 3.63881 5.23738 3.44992 5.35427C3.26103 5.47116 3.16659 5.63494 3.16659 5.84561C3.16659 5.95672 3.18881 6.05405 3.23325 6.13761C3.2777 6.22116 3.34436 6.28494 3.43325 6.32894L8.14992 9.27894C8.20547 9.31227 8.26392 9.33738 8.32525 9.35427C8.38659 9.37116 8.44481 9.37938 8.49992 9.37894Z" fill="#D3D3D3"/>
</svg>
