<svg width="40" height="40" viewBox="0 0 40 40" fill="none" xmlns="http://www.w3.org/2000/svg">
<rect width="40" height="40" rx="12" fill="#DDDDDD"/>
<path d="M25.3333 8C27.1014 8 28.7971 8.70238 30.0474 9.95262C31.2976 11.2029 32 12.8986 32 14.6667V25.3333C32 27.1014 31.2976 28.7971 30.0474 30.0474C28.7971 31.2976 27.1014 32 25.3333 32H14.6667C12.8986 32 11.2029 31.2976 9.95262 30.0474C8.70238 28.7971 8 27.1014 8 25.3333V14.6667C8 12.8986 8.70238 11.2029 9.95262 9.95262C11.2029 8.70238 12.8986 8 14.6667 8H25.3333ZM20 14.6667C18.5855 14.6667 17.229 15.2286 16.2288 16.2288C15.2286 17.229 14.6667 18.5855 14.6667 20C14.6667 21.4145 15.2286 22.771 16.2288 23.7712C17.229 24.7714 18.5855 25.3333 20 25.3333C21.4145 25.3333 22.771 24.7714 23.7712 23.7712C24.7714 22.771 25.3333 21.4145 25.3333 20C25.3333 18.5855 24.7714 17.229 23.7712 16.2288C22.771 15.2286 21.4145 14.6667 20 14.6667ZM20 17.3333C20.7072 17.3333 21.3855 17.6143 21.8856 18.1144C22.3857 18.6145 22.6667 19.2928 22.6667 20C22.6667 20.7072 22.3857 21.3855 21.8856 21.8856C21.3855 22.3857 20.7072 22.6667 20 22.6667C19.2928 22.6667 18.6145 22.3857 18.1144 21.8856C17.6143 21.3855 17.3333 20.7072 17.3333 20C17.3333 19.2928 17.6143 18.6145 18.1144 18.1144C18.6145 17.6143 19.2928 17.3333 20 17.3333ZM26 12.6667C25.6464 12.6667 25.3072 12.8071 25.0572 13.0572C24.8071 13.3072 24.6667 13.6464 24.6667 14C24.6667 14.3536 24.8071 14.6928 25.0572 14.9428C25.3072 15.1929 25.6464 15.3333 26 15.3333C26.3536 15.3333 26.6928 15.1929 26.9428 14.9428C27.1929 14.6928 27.3333 14.3536 27.3333 14C27.3333 13.6464 27.1929 13.3072 26.9428 13.0572C26.6928 12.8071 26.3536 12.6667 26 12.6667Z" fill="#F5F5F5"/>
</svg>
