<svg width="25" height="25" viewBox="0 0 25 25" fill="none" xmlns="http://www.w3.org/2000/svg">
<path d="M17.8333 0.329102C19.6014 0.329102 21.2971 1.03148 22.5474 2.28172C23.7976 3.53197 24.5 5.22766 24.5 6.99577V17.6624C24.5 19.4305 23.7976 21.1262 22.5474 22.3765C21.2971 23.6267 19.6014 24.3291 17.8333 24.3291H7.16667C5.39856 24.3291 3.70286 23.6267 2.45262 22.3765C1.20238 21.1262 0.5 19.4305 0.5 17.6624V6.99577C0.5 5.22766 1.20238 3.53197 2.45262 2.28172C3.70286 1.03148 5.39856 0.329102 7.16667 0.329102H17.8333ZM12.5 6.99577C11.0855 6.99577 9.72896 7.55767 8.72876 8.55787C7.72857 9.55806 7.16667 10.9146 7.16667 12.3291C7.16667 13.7436 7.72857 15.1001 8.72876 16.1003C9.72896 17.1005 11.0855 17.6624 12.5 17.6624C13.9145 17.6624 15.271 17.1005 16.2712 16.1003C17.2714 15.1001 17.8333 13.7436 17.8333 12.3291C17.8333 10.9146 17.2714 9.55806 16.2712 8.55787C15.271 7.55767 13.9145 6.99577 12.5 6.99577ZM12.5 9.66244C13.2072 9.66244 13.8855 9.94339 14.3856 10.4435C14.8857 10.9436 15.1667 11.6219 15.1667 12.3291C15.1667 13.0363 14.8857 13.7146 14.3856 14.2147C13.8855 14.7148 13.2072 14.9958 12.5 14.9958C11.7928 14.9958 11.1145 14.7148 10.6144 14.2147C10.1143 13.7146 9.83333 13.0363 9.83333 12.3291C9.83333 11.6219 10.1143 10.9436 10.6144 10.4435C11.1145 9.94339 11.7928 9.66244 12.5 9.66244ZM18.5 4.99577C18.1464 4.99577 17.8072 5.13624 17.5572 5.38629C17.3071 5.63634 17.1667 5.97548 17.1667 6.3291C17.1667 6.68272 17.3071 7.02186 17.5572 7.27191C17.8072 7.52196 18.1464 7.66244 18.5 7.66244C18.8536 7.66244 19.1928 7.52196 19.4428 7.27191C19.6929 7.02186 19.8333 6.68272 19.8333 6.3291C19.8333 5.97548 19.6929 5.63634 19.4428 5.38629C19.1928 5.13624 18.8536 4.99577 18.5 4.99577Z" fill="#F5F5F5"/>
</svg>
