<svg width="29" height="27" viewBox="0 0 29 27" fill="none" xmlns="http://www.w3.org/2000/svg">
<path d="M14.4987 0.463379C22.232 0.463379 28.5 5.34871 28.5 11.3767C28.5 17.4034 22.232 22.2887 14.5 22.2887C13.7302 22.2874 12.9611 22.2384 12.1973 22.142L6.32 25.986C5.652 26.3394 5.416 26.3007 5.69067 25.4354L6.88 20.5314C3.04 18.5847 0.5 15.2114 0.5 11.3767C0.5 5.35005 6.76667 0.463379 14.5 0.463379M22.3773 11.21L24.3373 9.31138C24.4504 9.19392 24.5135 9.03716 24.5133 8.8741C24.5131 8.71105 24.4497 8.55444 24.3363 8.43726C24.2229 8.32008 24.0685 8.25147 23.9055 8.2459C23.7425 8.24033 23.5838 8.29822 23.4627 8.40738L20.892 10.8954V8.83938C20.892 8.67247 20.8257 8.5124 20.7077 8.39437C20.5896 8.27635 20.4296 8.21005 20.2627 8.21005C20.0958 8.21005 19.9357 8.27635 19.8177 8.39437C19.6996 8.5124 19.6333 8.67247 19.6333 8.83938V12.2487C19.6112 12.3461 19.6112 12.4473 19.6333 12.5447V14.4634C19.6333 14.6303 19.6996 14.7904 19.8177 14.9084C19.9357 15.0264 20.0958 15.0927 20.2627 15.0927C20.4296 15.0927 20.5896 15.0264 20.7077 14.9084C20.8257 14.7904 20.892 14.6303 20.892 14.4634V12.646L21.4613 12.0954L23.3653 14.806C23.4129 14.8737 23.4733 14.9314 23.5431 14.9757C23.6129 15.02 23.6908 15.0502 23.7722 15.0644C23.8537 15.0787 23.9372 15.0767 24.0179 15.0587C24.0986 15.0407 24.175 15.0069 24.2427 14.9594C24.3103 14.9118 24.368 14.8514 24.4123 14.7816C24.4567 14.7118 24.4868 14.6339 24.501 14.5525C24.5153 14.471 24.5133 14.3875 24.4953 14.3068C24.4773 14.2261 24.4435 14.1497 24.396 14.082L22.3773 11.21ZM18.4333 13.7754H16.4867V8.85938C16.4792 8.69765 16.4097 8.54502 16.2926 8.43321C16.1756 8.3214 16.0199 8.259 15.858 8.259C15.6961 8.259 15.5404 8.3214 15.4234 8.43321C15.3063 8.54502 15.2368 8.69765 15.2293 8.85938V14.4047C15.2293 14.7514 15.5093 15.034 15.8573 15.034H18.4333C18.6002 15.034 18.7603 14.9677 18.8783 14.8497C18.9964 14.7317 19.0627 14.5716 19.0627 14.4047C19.0627 14.2378 18.9964 14.0777 18.8783 13.9597C18.7603 13.8417 18.6002 13.7754 18.4333 13.7754ZM10.624 12.3207L11.552 10.0434L12.4027 12.3194L10.624 12.3207ZM13.988 12.97L13.9907 12.9487C13.9902 12.7902 13.9297 12.6377 13.8213 12.522L12.4267 8.78871C12.3682 8.6108 12.2568 8.45497 12.1075 8.34204C11.9581 8.22911 11.7778 8.16445 11.5907 8.15671C11.4024 8.15663 11.2184 8.2135 11.063 8.31987C10.9076 8.42624 10.7881 8.57713 10.72 8.75271L8.504 14.186C8.44088 14.3406 8.44173 14.5139 8.50637 14.6678C8.57101 14.8217 8.69413 14.9436 8.84867 15.0067C9.0032 15.0698 9.17648 15.069 9.33038 15.0043C9.48429 14.9397 9.60621 14.8166 9.66933 14.662L10.112 13.578H12.872L13.2693 14.6447C13.2964 14.7244 13.3393 14.7979 13.3953 14.8608C13.4513 14.9237 13.5194 14.9747 13.5955 15.0108C13.6716 15.0469 13.7541 15.0673 13.8382 15.0709C13.9224 15.0745 14.0064 15.0612 14.0853 15.0317C14.1642 15.0023 14.2364 14.9573 14.2975 14.8995C14.3587 14.8416 14.4077 14.772 14.4415 14.6949C14.4753 14.6178 14.4933 14.5347 14.4945 14.4505C14.4956 14.3663 14.4798 14.2827 14.448 14.2047L13.988 12.97ZM9.55733 8.86604C9.55768 8.78341 9.54169 8.70153 9.51027 8.6251C9.47885 8.54868 9.43263 8.47922 9.37426 8.42073C9.31589 8.36223 9.24654 8.31586 9.17018 8.28428C9.09382 8.2527 9.01197 8.23654 8.92933 8.23671H4.60267C4.43576 8.23671 4.27568 8.30302 4.15766 8.42104C4.03964 8.53906 3.97333 8.69914 3.97333 8.86604C3.97333 9.03296 4.03964 9.19303 4.15766 9.31105C4.27568 9.42907 4.43576 9.49538 4.60267 9.49538H6.14933V14.4767C6.14933 14.6436 6.21564 14.8037 6.33366 14.9217C6.45168 15.0397 6.61176 15.106 6.77867 15.106C6.94558 15.106 7.10565 15.0397 7.22367 14.9217C7.3417 14.8037 7.408 14.6436 7.408 14.4767V9.49538H8.928C9.01074 9.49573 9.09274 9.47969 9.16925 9.44819C9.24577 9.41669 9.31528 9.37035 9.37379 9.31184C9.4323 9.25333 9.47864 9.18381 9.51015 9.1073C9.54165 9.03078 9.55769 8.94879 9.55733 8.86604Z" fill="#F5F5F5"/>
</svg>
