<svg width="40" height="40" viewBox="0 0 40 40" fill="none" xmlns="http://www.w3.org/2000/svg">
<rect width="40" height="40" rx="12" fill="#AAAAAA"/>
<path d="M19.9987 7.13428C27.732 7.13428 34 12.0196 34 18.0476C34 24.0743 27.732 28.9596 20 28.9596C19.2302 28.9583 18.4611 28.9093 17.6973 28.8129L11.82 32.6569C11.152 33.0103 10.916 32.9716 11.1907 32.1063L12.38 27.2023C8.54 25.2556 6 21.8823 6 18.0476C6 12.0209 12.2667 7.13428 20 7.13428M27.8773 17.8809L29.8373 15.9823C29.9504 15.8648 30.0135 15.7081 30.0133 15.545C30.0131 15.3819 29.9497 15.2253 29.8363 15.1082C29.7229 14.991 29.5685 14.9224 29.4055 14.9168C29.2425 14.9112 29.0838 14.9691 28.9627 15.0783L26.392 17.5663V15.5103C26.392 15.3434 26.3257 15.1833 26.2077 15.0653C26.0896 14.9472 25.9296 14.8809 25.7627 14.8809C25.5958 14.8809 25.4357 14.9472 25.3177 15.0653C25.1996 15.1833 25.1333 15.3434 25.1333 15.5103V18.9196C25.1112 19.017 25.1112 19.1182 25.1333 19.2156V21.1343C25.1333 21.3012 25.1996 21.4613 25.3177 21.5793C25.4357 21.6973 25.5958 21.7636 25.7627 21.7636C25.9296 21.7636 26.0896 21.6973 26.2077 21.5793C26.3257 21.4613 26.392 21.3012 26.392 21.1343V19.3169L26.9613 18.7663L28.8653 21.4769C28.9129 21.5446 28.9733 21.6023 29.0431 21.6466C29.1129 21.6909 29.1908 21.7211 29.2722 21.7353C29.3537 21.7495 29.4372 21.7476 29.5179 21.7296C29.5986 21.7116 29.675 21.6778 29.7427 21.6303C29.8103 21.5827 29.868 21.5223 29.9123 21.4525C29.9567 21.3827 29.9868 21.3048 30.001 21.2234C30.0153 21.1419 30.0133 21.0584 29.9953 20.9777C29.9773 20.897 29.9435 20.8206 29.896 20.7529L27.8773 17.8809ZM23.9333 20.4463H21.9867V15.5303C21.9792 15.3686 21.9097 15.2159 21.7926 15.1041C21.6756 14.9923 21.5199 14.9299 21.358 14.9299C21.1961 14.9299 21.0404 14.9923 20.9234 15.1041C20.8063 15.2159 20.7368 15.3686 20.7293 15.5303V21.0756C20.7293 21.4223 21.0093 21.7049 21.3573 21.7049H23.9333C24.1002 21.7049 24.2603 21.6386 24.3783 21.5206C24.4964 21.4026 24.5627 21.2425 24.5627 21.0756C24.5627 20.9087 24.4964 20.7486 24.3783 20.6306C24.2603 20.5126 24.1002 20.4463 23.9333 20.4463ZM16.124 18.9916L17.052 16.7143L17.9027 18.9903L16.124 18.9916ZM19.488 19.6409L19.4907 19.6196C19.4902 19.4611 19.4297 19.3086 19.3213 19.1929L17.9267 15.4596C17.8682 15.2817 17.7568 15.1259 17.6075 15.0129C17.4581 14.9 17.2778 14.8353 17.0907 14.8276C16.9024 14.8275 16.7184 14.8844 16.563 14.9908C16.4076 15.0971 16.2881 15.248 16.22 15.4236L14.004 20.8569C13.9409 21.0115 13.9417 21.1848 14.0064 21.3387C14.071 21.4926 14.1941 21.6145 14.3487 21.6776C14.5032 21.7407 14.6765 21.7399 14.8304 21.6752C14.9843 21.6106 15.1062 21.4875 15.1693 21.3329L15.612 20.2489H18.372L18.7693 21.3156C18.7964 21.3953 18.8393 21.4688 18.8953 21.5317C18.9513 21.5946 19.0194 21.6456 19.0955 21.6817C19.1716 21.7178 19.2541 21.7382 19.3382 21.7418C19.4224 21.7454 19.5064 21.7321 19.5853 21.7026C19.6642 21.6732 19.7364 21.6282 19.7975 21.5704C19.8587 21.5125 19.9077 21.4429 19.9415 21.3658C19.9753 21.2887 19.9933 21.2056 19.9945 21.1214C19.9956 21.0372 19.9798 20.9536 19.948 20.8756L19.488 19.6409ZM15.0573 15.5369C15.0577 15.4543 15.0417 15.3724 15.0103 15.296C14.9789 15.2196 14.9326 15.1501 14.8743 15.0916C14.8159 15.0331 14.7465 14.9868 14.6702 14.9552C14.5938 14.9236 14.512 14.9074 14.4293 14.9076H10.1027C9.93576 14.9076 9.77568 14.9739 9.65766 15.0919C9.53964 15.21 9.47333 15.37 9.47333 15.5369C9.47333 15.7039 9.53964 15.8639 9.65766 15.9819C9.77568 16.1 9.93576 16.1663 10.1027 16.1663H11.6493V21.1476C11.6493 21.3145 11.7156 21.4746 11.8337 21.5926C11.9517 21.7106 12.1118 21.7769 12.2787 21.7769C12.4456 21.7769 12.6056 21.7106 12.7237 21.5926C12.8417 21.4746 12.908 21.3145 12.908 21.1476V16.1663H14.428C14.5107 16.1666 14.5927 16.1506 14.6693 16.1191C14.7458 16.0876 14.8153 16.0412 14.8738 15.9827C14.9323 15.9242 14.9786 15.8547 15.0101 15.7782C15.0416 15.7017 15.0577 15.6197 15.0573 15.5369Z" fill="#F5F5F5"/>
</svg>
