<svg width="41" height="33" viewBox="0 0 41 33" fill="none" xmlns="http://www.w3.org/2000/svg">
<g clip-path="url(#clip0_125_3399)">
<path d="M16.2008 13.2025C16.2008 12.9413 17.5352 11.7876 17.7072 8.35449C17.8793 4.92135 15.6443 0.329102 9.10872 0.329102C5.00694 0.329102 3.59542 0.502919 1.88866 2.27139C0.182385 4.03935 0.528913 7.07967 0.528913 9.27473C0.528913 11.9172 0.528913 12.6006 0.528913 12.6006V18.1657V26.3997C0.528913 28.7055 2.45663 30.5743 4.83487 30.5743H10.9621C18.0581 30.5743 20.1334 26.5487 20.1334 21.6788C20.1339 16.0958 16.2008 13.4637 16.2008 13.2025ZM9.79123 5.75717C11.3561 5.75717 12.6248 7.07172 12.6248 8.69319C12.6248 10.3147 11.3561 11.6292 9.79123 11.6292C8.22634 11.6292 6.95766 10.3147 6.95766 8.69319C6.95766 7.07172 8.22634 5.75717 9.79123 5.75717ZM12.7614 26.4484H6.82154C5.44501 26.4484 4.50991 24.9992 5.03665 23.6812L8.00635 16.2478C8.66489 14.5995 10.918 14.5995 11.5766 16.2478L14.5463 23.6812C15.0725 24.9992 14.1379 26.4484 12.7614 26.4484Z" fill="#CCCCCC"/>
<path d="M37.526 18.2813C36.2663 19.0485 34.0683 20.5704 32.8281 19.8415C33.2281 19.1622 34.5042 16.8776 34.8594 16.231C35.9274 14.2867 36.87 12.2691 37.7385 10.2222C38.5406 8.33074 39.4353 6.09686 38.2627 4.14798C37.4083 2.72744 35.7846 2.16868 34.2971 2.85586C32.3454 3.7582 31.8964 6.02814 31.4845 7.96913C30.6127 12.0866 29.7714 16.2243 29.2854 20.4104C27.8316 22.3627 25.0441 25.883 22.9485 24.832C21.4947 24.102 21.6953 21.7397 21.9993 19.8945C22.0004 19.8945 22.0015 19.8933 22.0026 19.8933C23.9717 19.3244 26.2733 18.5517 27.4502 16.6873C29.4477 13.5229 26.6678 9.70172 23.2056 11.2957C21.5449 12.0595 20.745 13.7707 20.3298 15.5044C20.1445 16.2761 19.9778 17.0849 19.8405 17.905C18.2091 18.2599 16.5538 18.4052 14.8865 18.4153C13.351 18.4255 13.5592 20.8858 15.0903 20.8757C16.5843 20.8667 18.0642 20.7326 19.5277 20.469C19.4852 21.0503 19.4645 21.6259 19.4711 22.1881C19.5157 26.0746 22.5126 28.6532 26.1055 26.7223C27.1157 26.1793 28.0539 25.4572 28.9279 24.6225C28.8298 26.4711 28.1433 30.1751 29.9817 31.3703C31.6174 32.4338 33.4689 30.744 34.4246 29.4395C36.1148 27.1301 36.1475 24.6078 34.5249 22.25C35.6266 22.2455 37.8126 20.8937 38.837 20.2696C40.1643 19.4619 38.8457 17.477 37.526 18.2813ZM23.9107 13.6975C24.6081 13.2289 25.6401 13.2255 25.7698 14.2585C25.8581 14.9626 25.3198 15.5754 24.849 15.9787C24.1821 16.5487 23.319 16.9362 22.4254 17.2302C22.6008 15.9167 22.8754 14.3937 23.9107 13.6975ZM34.3636 6.3154C34.7069 5.49755 35.7955 4.35526 36.3415 5.67216C36.639 6.39088 36.311 7.32927 36.0625 8.00743C35.5394 9.43023 34.8747 10.8192 34.2252 12.1834C33.6542 13.3821 33.0472 14.5638 32.3933 15.7173C32.414 15.6013 32.4326 15.4841 32.4533 15.3681C32.7094 13.9273 32.9916 12.4921 33.2847 11.0603C33.5953 9.53387 33.761 7.75284 34.3636 6.3154ZM33.5136 26.6074C33.2836 27.4433 31.5019 30.0669 31.2916 28.9337C31.0824 27.7993 31.236 26.1771 31.2654 25.393C31.3123 24.1223 31.4082 22.8538 31.5422 21.5888C32.7878 23.2188 33.992 24.8669 33.5136 26.6074Z" fill="#CCCCCC"/>
</g>
<defs>
<clipPath id="clip0_125_3399">
<rect width="40" height="32" fill="white" transform="translate(0.5 0.329102)"/>
</clipPath>
</defs>
</svg>
