<svg width="16" height="16" viewBox="0 0 16 16" fill="none" xmlns="http://www.w3.org/2000/svg">
<g clip-path="url(#clip0_125_3410)">
<path d="M13.4419 9.51885C13.3699 9.0186 12.9837 8.6286 12.4864 8.51235C10.5537 8.05935 10.0692 6.94635 9.98743 5.71185C9.64468 5.6481 9.03493 5.5791 7.99993 5.5791C6.96493 5.5791 6.35518 5.6481 6.01243 5.71185C5.93068 6.94635 5.44618 8.05935 3.51343 8.51235C3.01618 8.62935 2.62993 9.0186 2.55793 9.51885L2.18518 12.1004C2.05393 13.0094 2.72143 13.8291 3.64993 13.8291H12.3499C13.2777 13.8291 13.9459 13.0094 13.8147 12.1004L13.4419 9.51885ZM7.99993 11.9481C6.95368 11.9481 6.10543 11.1081 6.10543 10.0731C6.10543 9.0381 6.95368 8.1981 7.99993 8.1981C9.04618 8.1981 9.89443 9.0381 9.89443 10.0731C9.89443 11.1081 9.04543 11.9481 7.99993 11.9481ZM15.4624 4.8291C15.4444 3.7041 12.5809 1.82985 7.99993 1.8291C3.41818 1.82985 0.55468 3.7041 0.53743 4.8291C0.52018 5.9541 0.55318 7.4181 2.43868 7.17435C4.64443 6.8886 4.50868 6.11835 4.50868 5.01735C4.50868 4.24935 6.30268 4.0641 7.99993 4.0641C9.69718 4.0641 11.4904 4.24935 11.4912 5.01735C11.4912 6.11835 11.3554 6.8886 13.5612 7.17435C15.4459 7.4181 15.4797 5.9541 15.4624 4.8291Z" fill="#D3D3D3"/>
</g>
<defs>
<clipPath id="clip0_125_3410">
<rect width="15" height="15" fill="white" transform="translate(0.5 0.329102)"/>
</clipPath>
</defs>
</svg>
