<svg width="40" height="40" viewBox="0 0 40 40" fill="none" xmlns="http://www.w3.org/2000/svg">
<rect width="40" height="40" rx="12" fill="#AAAAAA"/>
<path d="M17.3333 23.9998L24.2533 19.9998L17.3333 15.9998V23.9998ZM32.7467 13.5598C32.92 14.1865 33.04 15.0265 33.12 16.0932C33.2133 17.1598 33.2533 18.0798 33.2533 18.8798L33.3333 19.9998C33.3333 22.9198 33.12 25.0665 32.7467 26.4398C32.4133 27.6398 31.64 28.4132 30.44 28.7465C29.8133 28.9198 28.6667 29.0398 26.9067 29.1198C25.1733 29.2132 23.5867 29.2532 22.12 29.2532L20 29.3332C14.4133 29.3332 10.9333 29.1198 9.55999 28.7465C8.35999 28.4132 7.58666 27.6398 7.25332 26.4398C7.07999 25.8132 6.95999 24.9732 6.87999 23.9065C6.78666 22.8398 6.74666 21.9198 6.74666 21.1198L6.66666 19.9998C6.66666 17.0798 6.87999 14.9332 7.25332 13.5598C7.58666 12.3598 8.35999 11.5865 9.55999 11.2532C10.1867 11.0798 11.3333 10.9598 13.0933 10.8798C14.8267 10.7865 16.4133 10.7465 17.88 10.7465L20 10.6665C25.5867 10.6665 29.0667 10.8798 30.44 11.2532C31.64 11.5865 32.4133 12.3598 32.7467 13.5598Z" fill="#F5F5F5"/>
</svg>
