<svg width="27" height="19" viewBox="0 0 27 19" fill="none" xmlns="http://www.w3.org/2000/svg">
<path d="M10.8334 13.3289L17.7534 9.32894L10.8334 5.32894V13.3289ZM26.2467 2.88894C26.4201 3.51561 26.5401 4.3556 26.6201 5.42227C26.7134 6.48894 26.7534 7.40894 26.7534 8.20894L26.8334 9.32894C26.8334 12.2489 26.6201 14.3956 26.2467 15.7689C25.9134 16.9689 25.1401 17.7423 23.9401 18.0756C23.3134 18.2489 22.1667 18.3689 20.4067 18.4489C18.6734 18.5423 17.0867 18.5823 15.6201 18.5823L13.5001 18.6623C7.91341 18.6623 4.43341 18.4489 3.06008 18.0756C1.86008 17.7423 1.08675 16.9689 0.753415 15.7689C0.580081 15.1423 0.460081 14.3023 0.380081 13.2356C0.286748 12.1689 0.246748 11.2489 0.246748 10.4489L0.166748 9.32894C0.166748 6.40894 0.380081 4.26227 0.753415 2.88894C1.08675 1.68894 1.86008 0.915605 3.06008 0.582272C3.68675 0.408939 4.83341 0.288939 6.59341 0.208939C8.32675 0.115605 9.91341 0.0756054 11.3801 0.0756054L13.5001 -0.00439453C19.0867 -0.00439453 22.5667 0.208939 23.9401 0.582272C25.1401 0.915605 25.9134 1.68894 26.2467 2.88894Z" fill="#F5F5F5"/>
</svg>
