<svg width="618" height="273" viewBox="0 0 618 273" fill="none" xmlns="http://www.w3.org/2000/svg">
<path d="M177.465 34.3853C177.287 43.1831 174.473 50.5295 169.022 56.4243C165.971 59.7124 162.343 62.2747 158.136 64.1113C153.959 65.9183 149.62 66.8218 145.117 66.8218C141.207 66.8218 137.356 66.0812 133.564 64.6001C129.773 63.119 126.411 61.0454 123.478 58.3794C119.716 54.9432 116.931 50.8109 115.125 45.9824C113.703 42.1315 112.992 38.3102 112.992 34.5186C112.992 27.4684 115.169 21.07 119.523 15.3232C122.515 11.3242 126.277 8.19906 130.81 5.94775C135.342 3.66683 140.096 2.52637 145.073 2.52637C153.811 2.52637 161.335 5.53304 167.645 11.5464C170.459 14.242 171.866 16.1527 171.866 17.2783C171.866 17.6634 171.703 17.9893 171.377 18.2559C171.081 18.5225 170.711 18.6558 170.267 18.6558C169.585 18.6558 168.86 18.1374 168.089 17.1006C162.135 9.19141 154.493 5.23682 145.162 5.23682C144.036 5.23682 142.896 5.31087 141.74 5.45898L141.518 37.0068L141.74 63.8003C142.836 64.0076 143.947 64.1113 145.073 64.1113C148.42 64.1113 151.664 63.5485 154.804 62.4229C162.743 59.6087 168.445 54.4396 171.911 46.9155C173.392 43.7459 174.266 40.5171 174.532 37.229H151.338C149.294 37.1698 148.065 37.0661 147.65 36.918C147.235 36.7699 147.028 36.3848 147.028 35.7627C147.028 34.8148 147.739 34.3408 149.161 34.3408L151.827 34.3853H177.465ZM211.901 0.70459L247.448 65H216.655L212.434 56.8687H197.504L184.352 56.8242L182.13 56.7798L179.198 62.2007C178.339 63.8299 177.731 64.8371 177.376 65.2222C177.05 65.6369 176.635 65.8442 176.132 65.8442C175.125 65.8442 174.621 65.3999 174.621 64.5112C174.621 64.1261 174.903 63.4152 175.465 62.3784C176.058 61.312 178.087 57.8462 181.553 51.981L208.435 6.70312L211.901 0.70459ZM198.082 29.8086L190.306 42.9165L184.085 53.7139L197.416 53.8916L210.79 53.7583L198.082 29.8086ZM285.216 7.3252L284.994 21.2329L284.861 34.4297L284.994 65H257.89L258.156 29.5864L258.023 17.5449L257.89 7.3252L252.024 7.4585L243.626 7.63623L242.382 7.68066C240.96 7.68066 240.25 7.14746 240.25 6.08105C240.25 5.13314 240.664 4.59993 241.494 4.48145C241.731 4.4222 242.456 4.37777 243.671 4.34814H298.191C300.087 4.37777 301.212 4.46663 301.568 4.61475C302.16 4.85173 302.457 5.35531 302.457 6.12549C302.457 7.13265 301.701 7.63623 300.19 7.63623L296.325 7.50293L286.105 7.3252H285.216ZM364.264 25.2319L364.175 12.7461L364.086 7.19189C364.086 5.7404 364.204 4.76286 364.441 4.25928C364.678 3.7557 365.167 3.50391 365.908 3.50391C367.033 3.50391 367.596 4.40739 367.596 6.21436L367.552 9.23584L367.463 19.1001L367.33 34.9629L367.463 51.4922L367.552 63.0894C367.552 64.1558 367.433 64.8815 367.196 65.2666C366.989 65.6517 366.559 65.8442 365.908 65.8442C365.226 65.8442 364.752 65.6369 364.486 65.2222C364.249 64.8075 364.13 64.0521 364.13 62.9561L364.175 59.1792L364.308 36.8735V28.6089L362.62 28.5645L353.955 28.3867L334.893 28.6089L334.938 40.8726L335.204 65H307.966L308.188 26.4761L308.1 16.3008L308.055 6.92529L307.966 4.34814H335.204L335.16 6.65869L334.938 25.2319C337.959 25.4393 342.758 25.543 349.334 25.543C355.377 25.543 360.354 25.4393 364.264 25.2319ZM403.987 23.8101C403.928 25.1727 403.898 26.8315 403.898 28.7866V31.4526L404.209 62.1118L419.272 61.9341L429.937 61.8008C431.684 61.8008 432.558 62.334 432.558 63.4004C432.558 64.2891 432.114 64.7926 431.225 64.9111C431.018 64.9408 429.788 64.9704 427.537 65H377.061L377.105 62.6895L377.149 47.8486L377.327 31.9414L376.972 4.34814H424.071C426.174 4.34814 427.374 4.39258 427.67 4.48145C428.352 4.65918 428.692 5.16276 428.692 5.99219C428.692 7.02897 428.041 7.54736 426.737 7.54736H426.426L404.165 7.23633L403.987 21.0107L408.831 21.0552L424.382 20.7886L427.804 20.7441C429.048 20.7441 429.862 20.8478 430.248 21.0552C430.662 21.2625 430.87 21.6772 430.87 22.2993C430.87 23.4546 429.892 24.0322 427.937 24.0322L424.427 23.9434L403.987 23.8101ZM474.948 54.958C477.792 56.9131 480.857 58.5868 484.146 59.979C487.463 61.3416 491.018 62.408 494.81 63.1782C495.728 63.356 496.187 63.8003 496.187 64.5112C496.187 65.4888 495.506 65.9775 494.143 65.9775C491.033 65.9775 486.663 64.6149 481.035 61.8896C476.355 59.6087 470.993 56.0837 464.95 51.3145V53.1362L464.995 60.6899V65H437.935V63.0005L438.023 48.5151L438.157 31.186L438.068 4.34814H455.93C463.928 4.34814 469.971 4.57031 474.059 5.01465C478.147 5.45898 481.628 6.28841 484.501 7.50293C489.181 9.45801 492.884 12.672 495.609 17.145C498.127 21.2922 499.386 25.6466 499.386 30.2085C499.386 35.0666 497.979 39.6432 495.165 43.9385C490.633 50.8405 483.894 54.5137 474.948 54.958ZM470.727 52.2031L472.859 52.2476C478.962 52.2476 484.116 50.5443 488.322 47.1377C490.988 45.0049 493.032 42.3389 494.454 39.1396C495.787 36.207 496.454 33.2152 496.454 30.1641C496.454 24.9801 494.765 20.3442 491.388 16.2563C488.811 13.0868 485.582 10.8503 481.702 9.54688C477.821 8.24349 472.356 7.54736 465.306 7.4585L464.906 37.229V45.2715L464.95 47.3599C466.757 49.1076 468.683 50.722 470.727 52.2031ZM92.5078 110.325L92.2856 124.233L92.1523 137.43L92.2856 168H65.1812L65.4478 132.586L65.3145 120.545L65.1812 110.325L59.3159 110.458L50.918 110.636L49.6738 110.681C48.252 110.681 47.541 110.147 47.541 109.081C47.541 108.133 47.9557 107.6 48.7852 107.481C49.0221 107.422 49.7479 107.378 50.9624 107.348H105.482C107.378 107.378 108.504 107.467 108.859 107.615C109.452 107.852 109.748 108.355 109.748 109.125C109.748 110.133 108.993 110.636 107.482 110.636L103.616 110.503L93.3965 110.325H92.5078ZM138.852 105.526C143.532 105.526 148.05 106.519 152.404 108.503C158.803 111.436 163.69 115.953 167.067 122.056C169.763 126.943 171.111 132.261 171.111 138.007C171.111 142.628 170.089 147.101 168.045 151.426C164.994 157.884 160.239 162.786 153.782 166.134C149.042 168.592 144.066 169.822 138.852 169.822C133.342 169.822 128.129 168.43 123.211 165.645C116.665 161.972 111.999 156.818 109.215 150.182C107.497 146.124 106.638 141.932 106.638 137.607C106.638 132.187 107.986 127.017 110.681 122.1C113.999 116.057 118.842 111.54 125.211 108.548C129.447 106.563 133.994 105.556 138.852 105.526ZM135.342 108.503L135.075 137.43L135.297 161.468L135.342 166.889C136.349 167.067 137.312 167.156 138.23 167.156C144.777 167.156 150.627 165.349 155.781 161.735C160.491 158.417 163.898 154.152 166.001 148.938C167.482 145.294 168.223 141.518 168.223 137.607C168.223 132.453 166.979 127.654 164.49 123.211C161.439 117.76 157.144 113.747 151.604 111.169C147.457 109.214 143.088 108.237 138.497 108.237C137.43 108.237 136.379 108.326 135.342 108.503ZM240.161 137.385C239.983 146.183 237.169 153.529 231.718 159.424C228.667 162.712 225.038 165.275 220.832 167.111C216.655 168.918 212.316 169.822 207.813 169.822C203.903 169.822 200.052 169.081 196.26 167.6C192.469 166.119 189.106 164.045 186.174 161.379C182.412 157.943 179.627 153.811 177.82 148.982C176.398 145.132 175.688 141.31 175.688 137.519C175.688 130.468 177.865 124.07 182.219 118.323C185.211 114.324 188.973 111.199 193.505 108.948C198.038 106.667 202.792 105.526 207.769 105.526C216.507 105.526 224.031 108.533 230.341 114.546C233.155 117.242 234.562 119.153 234.562 120.278C234.562 120.663 234.399 120.989 234.073 121.256C233.777 121.522 233.407 121.656 232.962 121.656C232.281 121.656 231.555 121.137 230.785 120.101C224.831 112.191 217.188 108.237 207.857 108.237C206.732 108.237 205.591 108.311 204.436 108.459L204.214 140.007L204.436 166.8C205.532 167.008 206.643 167.111 207.769 167.111C211.116 167.111 214.36 166.549 217.5 165.423C225.438 162.609 231.141 157.44 234.606 149.916C236.088 146.746 236.961 143.517 237.228 140.229H214.034C211.99 140.17 210.76 140.066 210.346 139.918C209.931 139.77 209.724 139.385 209.724 138.763C209.724 137.815 210.435 137.341 211.856 137.341L214.522 137.385H240.161ZM274.463 126.81C274.404 128.173 274.375 129.832 274.375 131.787V134.453L274.686 165.112L289.749 164.934L300.413 164.801C302.16 164.801 303.034 165.334 303.034 166.4C303.034 167.289 302.59 167.793 301.701 167.911C301.494 167.941 300.264 167.97 298.013 168H247.537L247.581 165.689L247.625 150.849L247.803 134.941L247.448 107.348H294.547C296.651 107.348 297.85 107.393 298.146 107.481C298.828 107.659 299.168 108.163 299.168 108.992C299.168 110.029 298.517 110.547 297.213 110.547H296.902L274.641 110.236L274.463 124.011L279.307 124.055L294.858 123.789L298.28 123.744C299.524 123.744 300.339 123.848 300.724 124.055C301.138 124.263 301.346 124.677 301.346 125.299C301.346 126.455 300.368 127.032 298.413 127.032L294.903 126.943L274.463 126.81ZM348.534 110.325L348.312 124.233L348.179 137.43L348.312 168H321.208L321.474 132.586L321.341 120.545L321.208 110.325L315.342 110.458L306.944 110.636L305.7 110.681C304.278 110.681 303.567 110.147 303.567 109.081C303.567 108.133 303.982 107.6 304.812 107.481C305.049 107.422 305.774 107.378 306.989 107.348H361.509C363.405 107.378 364.53 107.467 364.886 107.615C365.478 107.852 365.774 108.355 365.774 109.125C365.774 110.133 365.019 110.636 363.508 110.636L359.643 110.503L349.423 110.325H348.534ZM427.582 128.232L427.493 115.746L427.404 110.192C427.404 108.74 427.522 107.763 427.759 107.259C427.996 106.756 428.485 106.504 429.226 106.504C430.351 106.504 430.914 107.407 430.914 109.214L430.87 112.236L430.781 122.1L430.647 137.963L430.781 154.492L430.87 166.089C430.87 167.156 430.751 167.882 430.514 168.267C430.307 168.652 429.877 168.844 429.226 168.844C428.544 168.844 428.07 168.637 427.804 168.222C427.567 167.807 427.448 167.052 427.448 165.956L427.493 162.179L427.626 139.874V131.609L425.938 131.564L417.273 131.387L398.211 131.609L398.255 143.873L398.522 168H371.284L371.506 129.476L371.417 119.301L371.373 109.925L371.284 107.348H398.522L398.478 109.659L398.255 128.232C401.277 128.439 406.076 128.543 412.652 128.543C418.695 128.543 423.671 128.439 427.582 128.232ZM467.305 126.81C467.246 128.173 467.216 129.832 467.216 131.787V134.453L467.527 165.112L482.59 164.934L493.254 164.801C495.002 164.801 495.876 165.334 495.876 166.4C495.876 167.289 495.432 167.793 494.543 167.911C494.336 167.941 493.106 167.97 490.855 168H440.378L440.423 165.689L440.467 150.849L440.645 134.941L440.29 107.348H487.389C489.492 107.348 490.692 107.393 490.988 107.481C491.67 107.659 492.01 108.163 492.01 108.992C492.01 110.029 491.359 110.547 490.055 110.547H489.744L467.483 110.236L467.305 124.011L472.148 124.055L487.7 123.789L491.122 123.744C492.366 123.744 493.18 123.848 493.565 124.055C493.98 124.263 494.188 124.677 494.188 125.299C494.188 126.455 493.21 127.032 491.255 127.032L487.745 126.943L467.305 126.81ZM538.266 157.958C541.109 159.913 544.175 161.587 547.463 162.979C550.781 164.342 554.336 165.408 558.127 166.178C559.046 166.356 559.505 166.8 559.505 167.511C559.505 168.489 558.824 168.978 557.461 168.978C554.351 168.978 549.981 167.615 544.353 164.89C539.673 162.609 534.311 159.084 528.268 154.314V156.136L528.312 163.69V168H501.252V166L501.341 151.515L501.475 134.186L501.386 107.348H519.248C527.246 107.348 533.289 107.57 537.377 108.015C541.465 108.459 544.945 109.288 547.819 110.503C552.499 112.458 556.202 115.672 558.927 120.145C561.445 124.292 562.704 128.647 562.704 133.208C562.704 138.067 561.297 142.643 558.483 146.938C553.951 153.84 547.212 157.514 538.266 157.958ZM534.044 155.203L536.177 155.248C542.279 155.248 547.434 153.544 551.64 150.138C554.306 148.005 556.35 145.339 557.772 142.14C559.105 139.207 559.771 136.215 559.771 133.164C559.771 127.98 558.083 123.344 554.706 119.256C552.129 116.087 548.9 113.85 545.02 112.547C541.139 111.243 535.674 110.547 528.624 110.458L528.224 140.229V148.271L528.268 150.36C530.075 152.108 532 153.722 534.044 155.203ZM49.8516 244.606C51.9844 246.147 53.5692 247.835 54.606 249.672C55.6724 251.479 56.2056 253.434 56.2056 255.537C56.2056 258.944 54.8874 262.084 52.251 264.957C49.0221 268.512 44.1641 270.437 37.6768 270.733C34.0924 270.911 29.0566 271 22.5693 271H0.574707L0.619141 268.912L0.708008 260.292L0.841309 243.318L0.663574 224.833L0.574707 210.348H24.3911C30.3452 210.348 34.4331 210.452 36.6548 210.659C38.9061 210.837 41.2166 211.296 43.5864 212.037C46.1043 212.836 48.4593 214.007 50.6514 215.547C52.8434 217.087 54.5467 218.776 55.7612 220.612C57.6571 223.486 58.605 226.7 58.605 230.254C58.605 233.454 57.82 236.342 56.25 238.919C54.68 241.496 52.5472 243.392 49.8516 244.606ZM46.2524 245.762C44.9787 246.028 43.7938 246.162 42.6978 246.162C40.3576 246.162 38.4618 245.777 37.0103 245.006C35.5884 244.236 34.8774 243.229 34.8774 241.985C34.8774 241.304 35.1144 240.963 35.5884 240.963C35.9438 240.963 36.4326 241.111 37.0547 241.407C39.0986 242.444 41.3203 242.962 43.7197 242.962C48.0742 242.962 51.3623 241.244 53.584 237.808C55.0059 235.646 55.7168 233.172 55.7168 230.388C55.7168 226.152 54.0728 222.523 50.7847 219.501C48.4445 217.309 45.6452 215.725 42.3867 214.747C39.1579 213.77 35.0996 213.281 30.2119 213.281H27.7681L27.5015 239.941L27.7681 268.067L31.7671 268.112C36.1808 268.112 39.617 267.875 42.0757 267.401C44.5343 266.897 46.5783 266.053 48.2075 264.868C51.5845 262.38 53.2729 259.24 53.2729 255.448C53.2729 253.523 52.6805 251.76 51.4956 250.161C50.3403 248.531 48.5926 247.065 46.2524 245.762ZM95.396 208.526C100.076 208.526 104.594 209.519 108.948 211.503C115.347 214.436 120.234 218.953 123.611 225.056C126.307 229.943 127.655 235.261 127.655 241.007C127.655 245.628 126.633 250.101 124.589 254.426C121.538 260.884 116.783 265.786 110.326 269.134C105.586 271.592 100.61 272.822 95.396 272.822C89.8862 272.822 84.6727 271.43 79.7554 268.645C73.2088 264.972 68.5433 259.818 65.7588 253.182C64.0407 249.124 63.1816 244.932 63.1816 240.607C63.1816 235.187 64.5295 230.017 67.2251 225.1C70.5428 219.057 75.3861 214.54 81.7549 211.548C85.9909 209.563 90.5379 208.556 95.396 208.526ZM91.8857 211.503L91.6191 240.43L91.8413 264.468L91.8857 269.889C92.8929 270.067 93.8556 270.156 94.7739 270.156C101.32 270.156 107.171 268.349 112.325 264.735C117.035 261.417 120.442 257.152 122.545 251.938C124.026 248.294 124.767 244.518 124.767 240.607C124.767 235.453 123.522 230.654 121.034 226.211C117.983 220.76 113.688 216.747 108.148 214.169C104.001 212.214 99.632 211.237 95.0405 211.237C93.9741 211.237 92.9225 211.326 91.8857 211.503ZM162.091 206.705L197.638 271H166.845L162.624 262.869H147.694L134.542 262.824L132.32 262.78L129.388 268.201C128.529 269.83 127.921 270.837 127.566 271.222C127.24 271.637 126.825 271.844 126.322 271.844C125.315 271.844 124.811 271.4 124.811 270.511C124.811 270.126 125.092 269.415 125.655 268.378C126.248 267.312 128.277 263.846 131.743 257.981L158.625 212.703L162.091 206.705ZM148.272 235.809L140.496 248.917L134.275 259.714L147.605 259.892L160.98 259.758L148.272 235.809ZM238.694 260.958C241.538 262.913 244.604 264.587 247.892 265.979C251.21 267.342 254.764 268.408 258.556 269.178C259.474 269.356 259.934 269.8 259.934 270.511C259.934 271.489 259.252 271.978 257.89 271.978C254.779 271.978 250.41 270.615 244.782 267.89C240.101 265.609 234.74 262.084 228.697 257.314V259.136L228.741 266.69V271H201.681V269L201.77 254.515L201.903 237.186L201.814 210.348H219.677C227.675 210.348 233.718 210.57 237.806 211.015C241.894 211.459 245.374 212.288 248.248 213.503C252.928 215.458 256.631 218.672 259.356 223.145C261.874 227.292 263.133 231.647 263.133 236.208C263.133 241.067 261.726 245.643 258.912 249.938C254.379 256.84 247.64 260.514 238.694 260.958ZM234.473 258.203L236.606 258.248C242.708 258.248 247.862 256.544 252.069 253.138C254.735 251.005 256.779 248.339 258.201 245.14C259.534 242.207 260.2 239.215 260.2 236.164C260.2 230.98 258.512 226.344 255.135 222.256C252.558 219.087 249.329 216.85 245.448 215.547C241.568 214.243 236.102 213.547 229.052 213.458L228.652 243.229V251.271L228.697 253.36C230.504 255.108 232.429 256.722 234.473 258.203ZM271.353 210.348H294.725C300.827 210.348 305.419 210.644 308.5 211.237C316.112 212.688 322.259 216.747 326.939 223.412C330.613 228.655 332.449 234.431 332.449 240.741C332.449 247.169 330.553 253.019 326.762 258.292C322.2 264.661 316.246 268.615 308.899 270.156C307.004 270.541 305.315 270.778 303.834 270.867C302.353 270.956 299.094 271 294.059 271H271.486L271.62 241.674L271.353 210.348ZM298.502 213.192L298.28 248.917L298.546 268.156C302.516 268.127 305.36 267.979 307.078 267.712C308.825 267.416 310.825 266.779 313.076 265.801C318.379 263.52 322.541 259.847 325.562 254.782C328.198 250.427 329.517 245.717 329.517 240.652C329.517 235.142 327.961 230.077 324.851 225.456C319.312 217.25 311.106 213.147 300.235 213.147L298.502 213.192ZM401.455 240.385C401.277 249.183 398.463 256.529 393.012 262.424C389.961 265.712 386.332 268.275 382.126 270.111C377.949 271.918 373.61 272.822 369.107 272.822C365.197 272.822 361.346 272.081 357.554 270.6C353.763 269.119 350.4 267.045 347.468 264.379C343.706 260.943 340.921 256.811 339.114 251.982C337.692 248.132 336.981 244.31 336.981 240.519C336.981 233.468 339.159 227.07 343.513 221.323C346.505 217.324 350.267 214.199 354.799 211.948C359.332 209.667 364.086 208.526 369.062 208.526C377.801 208.526 385.325 211.533 391.635 217.546C394.449 220.242 395.856 222.153 395.856 223.278C395.856 223.663 395.693 223.989 395.367 224.256C395.071 224.522 394.701 224.656 394.256 224.656C393.575 224.656 392.849 224.137 392.079 223.101C386.125 215.191 378.482 211.237 369.151 211.237C368.026 211.237 366.885 211.311 365.73 211.459L365.508 243.007L365.73 269.8C366.826 270.008 367.937 270.111 369.062 270.111C372.41 270.111 375.653 269.549 378.793 268.423C386.732 265.609 392.435 260.44 395.9 252.916C397.382 249.746 398.255 246.517 398.522 243.229H375.328C373.284 243.17 372.054 243.066 371.64 242.918C371.225 242.77 371.018 242.385 371.018 241.763C371.018 240.815 371.729 240.341 373.15 240.341L375.816 240.385H401.455ZM435.891 206.705L471.438 271H440.645L436.424 262.869H421.494L408.342 262.824L406.12 262.78L403.188 268.201C402.328 269.83 401.721 270.837 401.366 271.222C401.04 271.637 400.625 271.844 400.122 271.844C399.114 271.844 398.611 271.4 398.611 270.511C398.611 270.126 398.892 269.415 399.455 268.378C400.048 267.312 402.077 263.846 405.542 257.981L432.425 212.703L435.891 206.705ZM422.072 235.809L414.296 248.917L408.075 259.714L421.405 259.892L434.78 259.758L422.072 235.809ZM537.066 208.26L546.752 241.363L551.151 256.026L555.106 269.312L555.639 271H528.624L520.092 239.585L501.741 267.179L482.901 240.963C481.094 247.361 479.125 255.211 476.992 264.513C476.222 268.067 475.659 270.185 475.303 270.867C474.977 271.518 474.296 271.844 473.259 271.844C471.956 271.844 471.304 271.4 471.304 270.511C471.304 270.245 471.719 268.749 472.548 266.023L475.303 256.559L480.102 240.208L489.478 208.26L513.827 243.496L537.066 208.26ZM588.787 229.81C588.727 231.173 588.698 232.832 588.698 234.787V237.453L589.009 268.112L604.072 267.934L614.736 267.801C616.484 267.801 617.357 268.334 617.357 269.4C617.357 270.289 616.913 270.793 616.024 270.911C615.817 270.941 614.588 270.97 612.336 271H561.86L561.904 268.689L561.949 253.849L562.126 237.941L561.771 210.348H608.871C610.974 210.348 612.174 210.393 612.47 210.481C613.151 210.659 613.492 211.163 613.492 211.992C613.492 213.029 612.84 213.547 611.537 213.547H611.226L588.964 213.236L588.787 227.011L593.63 227.055L609.182 226.789L612.603 226.744C613.847 226.744 614.662 226.848 615.047 227.055C615.462 227.263 615.669 227.677 615.669 228.299C615.669 229.455 614.691 230.032 612.736 230.032L609.226 229.943L588.787 229.81Z" fill="#222222"/>
</svg>
