<svg width="22" height="22" viewBox="0 0 22 22" fill="none" xmlns="http://www.w3.org/2000/svg">
<path d="M2.75 5.5C2.75 5.25688 2.84658 5.02373 3.01849 4.85182C3.19039 4.67991 3.42355 4.58333 3.66667 4.58333H18.3333C18.5764 4.58333 18.8096 4.67991 18.9815 4.85182C19.1534 5.02373 19.25 5.25688 19.25 5.5C19.25 5.74312 19.1534 5.97627 18.9815 6.14818C18.8096 6.32009 18.5764 6.41667 18.3333 6.41667H3.66667C3.42355 6.41667 3.19039 6.32009 3.01849 6.14818C2.84658 5.97627 2.75 5.74312 2.75 5.5ZM2.75 16.5C2.75 16.2569 2.84658 16.0237 3.01849 15.8518C3.19039 15.6799 3.42355 15.5833 3.66667 15.5833H18.3333C18.5764 15.5833 18.8096 15.6799 18.9815 15.8518C19.1534 16.0237 19.25 16.2569 19.25 16.5C19.25 16.7431 19.1534 16.9763 18.9815 17.1482C18.8096 17.3201 18.5764 17.4167 18.3333 17.4167H3.66667C3.42355 17.4167 3.19039 17.3201 3.01849 17.1482C2.84658 16.9763 2.75 16.7431 2.75 16.5ZM2.75 11C2.75 10.7569 2.84658 10.5237 3.01849 10.3518C3.19039 10.1799 3.42355 10.0833 3.66667 10.0833H18.3333C18.5764 10.0833 18.8096 10.1799 18.9815 10.3518C19.1534 10.5237 19.25 10.7569 19.25 11C19.25 11.2431 19.1534 11.4763 18.9815 11.6482C18.8096 11.8201 18.5764 11.9167 18.3333 11.9167H9.40775L6.98042 14.344L4.55308 11.9167H3.66667C3.42355 11.9167 3.19039 11.8201 3.01849 11.6482C2.84658 11.4763 2.75 11.2431 2.75 11Z" fill="#EA5C5C"/>
</svg>
