<svg width="32" height="32" viewBox="0 0 32 32" fill="none" xmlns="http://www.w3.org/2000/svg">
<path d="M15.9999 2.66667C23.2279 2.66667 29.3333 8.772 29.3333 16C29.3333 23.228 23.2279 29.3333 15.9999 29.3333C8.77192 29.3333 2.66659 23.228 2.66659 16C2.66659 8.772 8.77192 2.66667 15.9999 2.66667ZM15.9999 9.33334C13.6973 9.33334 11.9999 11.0293 11.9999 13.3333C11.9999 15.6373 13.6973 17.3333 15.9999 17.3333C18.3013 17.3333 19.9999 15.6373 19.9999 13.3333C19.9999 11.0293 18.3013 9.33334 15.9999 9.33334ZM22.8079 22.3627C21.6119 20.6027 19.6173 19.4293 17.3333 19.4293H14.6666C12.3813 19.4293 10.3879 20.6027 9.19192 22.3627C10.8959 24.1867 13.3133 25.3333 15.9999 25.3333C18.6866 25.3333 21.1039 24.1867 22.8079 22.3627Z" fill="#EA5C5C"/>
</svg>
