<svg width="72" height="56" viewBox="0 0 72 56" fill="none" xmlns="http://www.w3.org/2000/svg">
<path d="M28.2614 22.5285C28.2614 22.0713 30.6633 20.0524 30.973 14.0444C31.2827 8.03644 27.2598 0 15.4957 0C8.11249 0 5.57176 0.30418 2.4996 3.399C-0.571707 6.49294 0.0520434 11.8135 0.0520434 15.6549C0.0520434 20.2793 0.0520434 21.4751 0.0520434 21.4751V31.2141V45.6236C0.0520434 49.6587 3.52193 52.9291 7.80277 52.9291H18.8319C31.6045 52.9291 35.3401 45.8843 35.3401 37.362C35.341 27.5918 28.2614 22.9856 28.2614 22.5285ZM16.7242 9.49911C19.541 9.49911 21.8246 11.7996 21.8246 14.6372C21.8246 17.4747 19.541 19.7752 16.7242 19.7752C13.9074 19.7752 11.6238 17.4747 11.6238 14.6372C11.6238 11.7996 13.9074 9.49911 16.7242 9.49911ZM22.0705 45.7087H11.3788C8.90102 45.7087 7.21784 43.1727 8.16598 40.8662L13.5114 27.8577C14.6968 24.9732 18.7525 24.9732 19.9379 27.8577L25.2833 40.8662C26.2306 43.1727 24.5483 45.7087 22.0705 45.7087Z" fill="#EA5C5C"/>
<path d="M66.647 31.4166C64.3795 32.7591 60.423 35.4225 58.1908 34.147C58.9107 32.9582 61.2076 28.9602 61.8471 27.8286C63.7694 24.4259 65.4662 20.8951 67.0295 17.3131C68.4732 14.0031 70.0837 10.0938 67.973 6.68326C66.4352 4.19731 63.5125 3.2195 60.835 4.42206C57.3218 6.00115 56.5137 9.97354 55.7722 13.3703C54.203 20.5758 52.6886 27.8168 51.8138 35.1425C49.1971 38.559 44.1794 44.7196 40.4074 42.8803C37.7907 41.6028 38.1516 37.4688 38.6989 34.2396C38.7008 34.2396 38.7028 34.2376 38.7048 34.2376C42.2493 33.2421 46.3921 31.8897 48.5105 28.627C52.1061 23.0893 47.1021 16.4023 40.8703 19.1918C37.8809 20.5285 36.4411 23.523 35.6938 26.557C35.3603 27.9075 35.0602 29.3229 34.813 30.7581C31.8766 31.3791 28.897 31.6334 25.8958 31.6512C23.132 31.6689 23.5067 35.9745 26.2626 35.9567C28.9519 35.9409 31.6157 35.7063 34.2501 35.245C34.1736 36.2623 34.1363 37.2697 34.1481 38.2534C34.2285 45.0548 39.6228 49.5673 46.09 46.1883C47.9083 45.2381 49.5972 43.9744 51.1704 42.5136C50.9939 45.7487 49.7581 52.2307 53.0672 54.3224C56.0115 56.1834 59.3442 53.2263 61.0645 50.9434C64.1068 46.902 64.1657 42.488 61.2449 38.3618C63.228 38.3539 67.1629 35.9883 69.0068 34.8961C71.3959 33.4826 69.0225 30.009 66.647 31.4166ZM42.1394 23.3949C43.3948 22.5748 45.2524 22.5689 45.4858 24.3767C45.6447 25.6088 44.6757 26.6812 43.8283 27.387C42.6279 28.3845 41.0743 29.0627 39.4658 29.5772C39.7816 27.2786 40.276 24.6132 42.1394 23.3949ZM60.9546 10.4763C61.5725 9.04501 63.5321 7.046 64.5148 9.35058C65.0503 10.6083 64.4599 12.2505 64.0127 13.4373C63.0711 15.9272 61.8746 18.3579 60.7055 20.7453C59.6776 22.8429 58.5851 24.9109 57.4081 26.9296C57.4454 26.7266 57.4787 26.5215 57.516 26.3185C57.977 23.7971 58.485 21.2855 59.0127 18.7798C59.5717 16.1086 59.8699 12.9918 60.9546 10.4763ZM59.4246 45.9873C59.0107 47.45 55.8036 52.0414 55.425 50.0582C55.0484 48.073 55.325 45.2342 55.3779 43.8621C55.4623 41.6383 55.6349 39.4185 55.8762 37.2046C58.1182 40.0572 60.2857 42.9414 59.4246 45.9873Z" fill="#49CEB7"/>
</svg>
