<svg width="28" height="28" viewBox="0 0 28 28" fill="none" xmlns="http://www.w3.org/2000/svg">
<path fill-rule="evenodd" clip-rule="evenodd" d="M18.6852 17.6074L24.8611 23.7835C25.0782 24.0008 25.2001 24.2954 25.2 24.6025C25.1999 24.9096 25.0778 25.2041 24.8606 25.4211C24.6433 25.6382 24.3488 25.7601 24.0417 25.76C23.7346 25.7599 23.4401 25.6378 23.223 25.4206L17.0471 19.2445C15.2008 20.6745 12.8792 21.3474 10.5544 21.1264C8.22965 20.9054 6.0764 19.807 4.5327 18.0547C2.989 16.3024 2.17081 14.0278 2.24458 11.6937C2.31835 9.35956 3.27853 7.14119 4.9298 5.48988C6.58107 3.83857 8.79938 2.87836 11.1335 2.80459C13.4675 2.73082 15.7421 3.54903 17.4943 5.09277C19.2466 6.63651 20.3449 8.78982 20.5659 11.1146C20.7869 13.4395 20.114 15.7612 18.684 17.6074M11.4244 18.8714C13.2511 18.8714 15.003 18.1457 16.2947 16.854C17.5864 15.5622 18.3121 13.8103 18.3121 11.9835C18.3121 10.1567 17.5864 8.40479 16.2947 7.11307C15.003 5.82134 13.2511 5.09566 11.4244 5.09566C9.59769 5.09566 7.84578 5.82134 6.55409 7.11307C5.2624 8.40479 4.53674 10.1567 4.53674 11.9835C4.53674 13.8103 5.2624 15.5622 6.55409 16.854C7.84578 18.1457 9.59769 18.8714 11.4244 18.8714Z" fill="#BBBBBB"/>
</svg>
