<svg width="70" height="15" viewBox="0 0 70 15" fill="none" xmlns="http://www.w3.org/2000/svg">
<path d="M5.00906 5.13356L6.52456 2.08156C6.56868 1.99324 6.63653 1.91895 6.7205 1.86702C6.80447 1.8151 6.90125 1.7876 6.99998 1.7876C7.09871 1.7876 7.19549 1.8151 7.27946 1.86702C7.36343 1.91895 7.43128 1.99324 7.4754 2.08156L8.9909 5.13356L12.3789 5.6259C12.4766 5.63945 12.5686 5.6802 12.6442 5.7435C12.7199 5.80681 12.7763 5.89011 12.8069 5.9839C12.8374 6.0777 12.8411 6.17821 12.8173 6.27395C12.7935 6.3697 12.7432 6.45683 12.6723 6.5254L10.2211 8.89956L10.7998 12.2537C10.8739 12.6842 10.4189 13.0121 10.0298 12.8091L6.99998 11.2247L3.96956 12.8091C3.58106 13.0126 3.12606 12.6842 3.20015 12.2531L3.77881 8.89898L1.32765 6.52481C1.25705 6.4562 1.20713 6.36916 1.18354 6.27358C1.15995 6.178 1.16365 6.07773 1.19422 5.98415C1.22478 5.89057 1.28099 5.80744 1.35644 5.74422C1.4319 5.68099 1.52358 5.6402 1.62106 5.62648L5.00906 5.13356Z" fill="#FFE476"/>
<path d="M6.99984 1.3501C7.17985 1.3501 7.35658 1.40012 7.50969 1.49479C7.6436 1.5776 7.75475 1.69186 7.83439 1.8269L7.86686 1.88615L7.86743 1.88672L9.28076 4.73332L12.4384 5.19246C12.6173 5.21728 12.7863 5.29191 12.9249 5.4078C13.0635 5.52372 13.1668 5.67639 13.2228 5.84814C13.2789 6.01993 13.2852 6.20428 13.2416 6.37964C13.198 6.55482 13.1059 6.71386 12.9762 6.83936L12.9767 6.83992L10.6912 9.05249L11.2307 12.1794L11.241 12.2534C11.3155 13.0099 10.5093 13.5523 9.82764 13.1968L6.99927 11.7185L4.17204 13.1962L4.17261 13.1968C3.46739 13.5662 2.63269 12.9717 2.76896 12.1788L3.30786 9.05249L1.02352 6.83879C0.894248 6.71313 0.801833 6.55352 0.758629 6.3785C0.715431 6.20345 0.722588 6.01953 0.778567 5.84814C0.834551 5.67688 0.937265 5.52468 1.07536 5.40894C1.19623 5.30765 1.33993 5.23773 1.49349 5.205L1.56014 5.19303L4.71835 4.73389L6.13281 1.88672L6.13338 1.88615L6.16529 1.8269C6.24494 1.69179 6.35659 1.57763 6.49056 1.49479C6.64359 1.40021 6.81994 1.35012 6.99984 1.3501ZM6.99984 2.2251C6.98248 2.22512 6.96563 2.23023 6.95085 2.23934C6.93634 2.24831 6.9239 2.26065 6.9161 2.2758L6.91667 2.27637L5.4008 5.32804C5.33694 5.45665 5.21419 5.54605 5.07211 5.56673L1.68433 6.05949H1.68205C1.66569 6.06179 1.6503 6.06885 1.63762 6.07943C1.62494 6.09005 1.61543 6.10417 1.61027 6.11987C1.60512 6.13564 1.60459 6.15276 1.60856 6.16886C1.61248 6.18461 1.62041 6.19903 1.63192 6.21045L4.08317 8.5848C4.18703 8.6854 4.23476 8.83082 4.21021 8.97331L3.63143 12.3275C3.61973 12.3966 3.69476 12.459 3.76644 12.4215L6.79704 10.8372L6.84603 10.815C6.96179 10.7715 7.09157 10.7792 7.20264 10.8372L10.2315 12.4209C10.2529 12.432 10.2707 12.4341 10.2845 12.4329C10.3 12.4314 10.3169 12.4252 10.3324 12.4141C10.348 12.4028 10.3587 12.3888 10.3643 12.3759C10.3667 12.3703 10.369 12.3639 10.37 12.356L10.3688 12.328L9.79004 8.97388C9.76549 8.83144 9.81274 8.68598 9.91651 8.58537L12.3678 6.21102L12.3837 6.19108C12.3877 6.18404 12.3909 6.17624 12.3928 6.16829C12.3968 6.15222 12.3963 6.13505 12.3911 6.1193C12.386 6.10359 12.3764 6.08948 12.3638 6.07886C12.351 6.06819 12.3352 6.06177 12.3188 6.05949L12.3159 6.05892L8.92814 5.56673C8.78602 5.54608 8.66275 5.45668 8.59888 5.32804L7.08358 2.27637C7.0758 2.26131 7.06382 2.24828 7.0494 2.23934C7.03456 2.23016 7.01729 2.2251 6.99984 2.2251Z" fill="#FFE476"/>
<path d="M19.0091 5.13356L20.5246 2.08156C20.5687 1.99324 20.6365 1.91895 20.7205 1.86702C20.8045 1.8151 20.9012 1.7876 21 1.7876C21.0987 1.7876 21.1955 1.8151 21.2795 1.86702C21.3634 1.91895 21.4313 1.99324 21.4754 2.08156L22.9909 5.13356L26.3789 5.6259C26.4766 5.63945 26.5686 5.6802 26.6442 5.7435C26.7199 5.80681 26.7763 5.89011 26.8069 5.9839C26.8374 6.0777 26.8411 6.17821 26.8173 6.27395C26.7935 6.3697 26.7432 6.45683 26.6723 6.5254L24.2211 8.89956L24.7998 12.2537C24.8739 12.6842 24.4189 13.0121 24.0298 12.8091L21 11.2247L17.9696 12.8091C17.5811 13.0126 17.1261 12.6842 17.2001 12.2531L17.7788 8.89898L15.3276 6.52481C15.2571 6.4562 15.2071 6.36916 15.1835 6.27358C15.16 6.178 15.1637 6.07773 15.1942 5.98415C15.2248 5.89057 15.281 5.80744 15.3564 5.74422C15.4319 5.68099 15.5236 5.6402 15.6211 5.62648L19.0091 5.13356Z" fill="#FFE476"/>
<path d="M20.9998 1.3501C21.1799 1.3501 21.3566 1.40012 21.5097 1.49479C21.6436 1.5776 21.7548 1.69186 21.8344 1.8269L21.8669 1.88615L21.8674 1.88672L23.2808 4.73332L26.4384 5.19246C26.6173 5.21728 26.7863 5.29191 26.9249 5.4078C27.0635 5.52372 27.1668 5.67639 27.2228 5.84814C27.2789 6.01993 27.2852 6.20428 27.2416 6.37964C27.198 6.55482 27.1059 6.71386 26.9762 6.83936L26.9767 6.83992L24.6912 9.05249L25.2307 12.1794L25.241 12.2534C25.3155 13.0099 24.5093 13.5523 23.8276 13.1968L20.9993 11.7185L18.172 13.1962L18.1726 13.1968C17.4674 13.5662 16.6327 12.9717 16.769 12.1788L17.3079 9.05249L15.0235 6.83879C14.8942 6.71313 14.8018 6.55352 14.7586 6.3785C14.7154 6.20345 14.7226 6.01953 14.7786 5.84814C14.8346 5.67688 14.9373 5.52468 15.0754 5.40894C15.1962 5.30765 15.3399 5.23773 15.4935 5.205L15.5601 5.19303L18.7183 4.73389L20.1328 1.88672L20.1334 1.88615L20.1653 1.8269C20.2449 1.69179 20.3566 1.57763 20.4906 1.49479C20.6436 1.40021 20.8199 1.35012 20.9998 1.3501ZM20.9998 2.2251C20.9825 2.22512 20.9656 2.23023 20.9508 2.23934C20.9363 2.24831 20.9239 2.26065 20.9161 2.2758L20.9167 2.27637L19.4008 5.32804C19.3369 5.45665 19.2142 5.54605 19.0721 5.56673L15.6843 6.05949H15.6821C15.6657 6.06179 15.6503 6.06885 15.6376 6.07943C15.6249 6.09005 15.6154 6.10417 15.6103 6.11987C15.6051 6.13564 15.6046 6.15276 15.6086 6.16886C15.6125 6.18461 15.6204 6.19903 15.6319 6.21045L18.0832 8.5848C18.187 8.6854 18.2348 8.83082 18.2102 8.97331L17.6314 12.3275C17.6197 12.3966 17.6948 12.459 17.7664 12.4215L20.797 10.8372L20.846 10.815C20.9618 10.7715 21.0916 10.7792 21.2026 10.8372L24.2315 12.4209C24.2529 12.432 24.2707 12.4341 24.2845 12.4329C24.3 12.4314 24.3169 12.4252 24.3324 12.4141C24.348 12.4028 24.3587 12.3888 24.3643 12.3759C24.3667 12.3703 24.369 12.3639 24.37 12.356L24.3688 12.328L23.79 8.97388C23.7655 8.83144 23.8127 8.68598 23.9165 8.58537L26.3678 6.21102L26.3837 6.19108C26.3877 6.18404 26.3909 6.17624 26.3928 6.16829C26.3968 6.15222 26.3963 6.13505 26.3911 6.1193C26.386 6.10359 26.3764 6.08948 26.3638 6.07886C26.351 6.06819 26.3352 6.06177 26.3188 6.05949L26.3159 6.05892L22.9281 5.56673C22.786 5.54608 22.6628 5.45668 22.5989 5.32804L21.0836 2.27637C21.0758 2.26131 21.0638 2.24828 21.0494 2.23934C21.0346 2.23016 21.0173 2.2251 20.9998 2.2251Z" fill="#FFE476"/>
<path d="M33.0091 5.13356L34.5246 2.08156C34.5687 1.99324 34.6365 1.91895 34.7205 1.86702C34.8045 1.8151 34.9012 1.7876 35 1.7876C35.0987 1.7876 35.1955 1.8151 35.2795 1.86702C35.3634 1.91895 35.4313 1.99324 35.4754 2.08156L36.9909 5.13356L40.3789 5.6259C40.4766 5.63945 40.5686 5.6802 40.6442 5.7435C40.7199 5.80681 40.7763 5.89011 40.8069 5.9839C40.8374 6.0777 40.8411 6.17821 40.8173 6.27395C40.7935 6.3697 40.7432 6.45683 40.6723 6.5254L38.2211 8.89956L38.7998 12.2537C38.8739 12.6842 38.4189 13.0121 38.0298 12.8091L35 11.2247L31.9696 12.8091C31.5811 13.0126 31.1261 12.6842 31.2001 12.2531L31.7788 8.89898L29.3276 6.52481C29.2571 6.4562 29.2071 6.36916 29.1835 6.27358C29.16 6.178 29.1637 6.07773 29.1942 5.98415C29.2248 5.89057 29.281 5.80744 29.3564 5.74422C29.4319 5.68099 29.5236 5.6402 29.6211 5.62648L33.0091 5.13356Z" fill="#FFE476"/>
<path d="M34.9998 1.3501C35.1799 1.3501 35.3566 1.40012 35.5097 1.49479C35.6436 1.5776 35.7548 1.69186 35.8344 1.8269L35.8669 1.88615L35.8674 1.88672L37.2808 4.73332L40.4384 5.19246C40.6173 5.21728 40.7863 5.29191 40.9249 5.4078C41.0635 5.52372 41.1668 5.67639 41.2228 5.84814C41.2789 6.01993 41.2852 6.20428 41.2416 6.37964C41.198 6.55482 41.1059 6.71386 40.9762 6.83936L40.9767 6.83992L38.6912 9.05249L39.2307 12.1794L39.241 12.2534C39.3155 13.0099 38.5093 13.5523 37.8276 13.1968L34.9993 11.7185L32.172 13.1962L32.1726 13.1968C31.4674 13.5662 30.6327 12.9717 30.769 12.1788L31.3079 9.05249L29.0235 6.83879C28.8942 6.71313 28.8018 6.55352 28.7586 6.3785C28.7154 6.20345 28.7226 6.01953 28.7786 5.84814C28.8346 5.67688 28.9373 5.52468 29.0754 5.40894C29.1962 5.30765 29.3399 5.23773 29.4935 5.205L29.5601 5.19303L32.7183 4.73389L34.1328 1.88672L34.1334 1.88615L34.1653 1.8269C34.2449 1.69179 34.3566 1.57763 34.4906 1.49479C34.6436 1.40021 34.8199 1.35012 34.9998 1.3501ZM34.9998 2.2251C34.9825 2.22512 34.9656 2.23023 34.9508 2.23934C34.9363 2.24831 34.9239 2.26065 34.9161 2.2758L34.9167 2.27637L33.4008 5.32804C33.3369 5.45665 33.2142 5.54605 33.0721 5.56673L29.6843 6.05949H29.6821C29.6657 6.06179 29.6503 6.06885 29.6376 6.07943C29.6249 6.09005 29.6154 6.10417 29.6103 6.11987C29.6051 6.13564 29.6046 6.15276 29.6086 6.16886C29.6125 6.18461 29.6204 6.19903 29.6319 6.21045L32.0832 8.5848C32.187 8.6854 32.2348 8.83082 32.2102 8.97331L31.6314 12.3275C31.6197 12.3966 31.6948 12.459 31.7664 12.4215L34.797 10.8372L34.846 10.815C34.9618 10.7715 35.0916 10.7792 35.2026 10.8372L38.2315 12.4209C38.2529 12.432 38.2707 12.4341 38.2845 12.4329C38.3 12.4314 38.3169 12.4252 38.3324 12.4141C38.348 12.4028 38.3587 12.3888 38.3643 12.3759C38.3667 12.3703 38.369 12.3639 38.37 12.356L38.3688 12.328L37.79 8.97388C37.7655 8.83144 37.8127 8.68598 37.9165 8.58537L40.3678 6.21102L40.3837 6.19108C40.3877 6.18404 40.3909 6.17624 40.3928 6.16829C40.3968 6.15222 40.3963 6.13505 40.3911 6.1193C40.386 6.10359 40.3764 6.08948 40.3638 6.07886C40.351 6.06819 40.3352 6.06177 40.3188 6.05949L40.3159 6.05892L36.9281 5.56673C36.786 5.54608 36.6628 5.45668 36.5989 5.32804L35.0836 2.27637C35.0758 2.26131 35.0638 2.24828 35.0494 2.23934C35.0346 2.23016 35.0173 2.2251 34.9998 2.2251Z" fill="#FFE476"/>
<path d="M47.0091 5.13356L48.5246 2.08156C48.5687 1.99324 48.6365 1.91895 48.7205 1.86702C48.8045 1.8151 48.9012 1.7876 49 1.7876C49.0987 1.7876 49.1955 1.8151 49.2795 1.86702C49.3634 1.91895 49.4313 1.99324 49.4754 2.08156L50.9909 5.13356L54.3789 5.6259C54.4766 5.63945 54.5686 5.6802 54.6442 5.7435C54.7199 5.80681 54.7763 5.89011 54.8069 5.9839C54.8374 6.0777 54.8411 6.17821 54.8173 6.27395C54.7935 6.3697 54.7432 6.45683 54.6723 6.5254L52.2211 8.89956L52.7998 12.2537C52.8739 12.6842 52.4189 13.0121 52.0298 12.8091L49 11.2247L45.9696 12.8091C45.5811 13.0126 45.1261 12.6842 45.2001 12.2531L45.7788 8.89898L43.3276 6.52481C43.2571 6.4562 43.2071 6.36916 43.1835 6.27358C43.16 6.178 43.1637 6.07773 43.1942 5.98415C43.2248 5.89057 43.281 5.80744 43.3564 5.74422C43.4319 5.68099 43.5236 5.6402 43.6211 5.62648L47.0091 5.13356Z" fill="#FFE476"/>
<path d="M48.9998 1.3501C49.1799 1.3501 49.3566 1.40012 49.5097 1.49479C49.6436 1.5776 49.7548 1.69186 49.8344 1.8269L49.8669 1.88615L49.8674 1.88672L51.2808 4.73332L54.4384 5.19246C54.6173 5.21728 54.7863 5.29191 54.9249 5.4078C55.0635 5.52372 55.1668 5.67639 55.2228 5.84814C55.2789 6.01993 55.2852 6.20428 55.2416 6.37964C55.198 6.55482 55.1059 6.71386 54.9762 6.83936L54.9767 6.83992L52.6912 9.05249L53.2307 12.1794L53.241 12.2534C53.3155 13.0099 52.5093 13.5523 51.8276 13.1968L48.9993 11.7185L46.172 13.1962L46.1726 13.1968C45.4674 13.5662 44.6327 12.9717 44.769 12.1788L45.3079 9.05249L43.0235 6.83879C42.8942 6.71313 42.8018 6.55352 42.7586 6.3785C42.7154 6.20345 42.7226 6.01953 42.7786 5.84814C42.8346 5.67688 42.9373 5.52468 43.0754 5.40894C43.1962 5.30765 43.3399 5.23773 43.4935 5.205L43.5601 5.19303L46.7183 4.73389L48.1328 1.88672L48.1334 1.88615L48.1653 1.8269C48.2449 1.69179 48.3566 1.57763 48.4906 1.49479C48.6436 1.40021 48.8199 1.35012 48.9998 1.3501ZM48.9998 2.2251C48.9825 2.22512 48.9656 2.23023 48.9508 2.23934C48.9363 2.24831 48.9239 2.26065 48.9161 2.2758L48.9167 2.27637L47.4008 5.32804C47.3369 5.45665 47.2142 5.54605 47.0721 5.56673L43.6843 6.05949H43.6821C43.6657 6.06179 43.6503 6.06885 43.6376 6.07943C43.6249 6.09005 43.6154 6.10417 43.6103 6.11987C43.6051 6.13564 43.6046 6.15276 43.6086 6.16886C43.6125 6.18461 43.6204 6.19903 43.6319 6.21045L46.0832 8.5848C46.187 8.6854 46.2348 8.83082 46.2102 8.97331L45.6314 12.3275C45.6197 12.3966 45.6948 12.459 45.7664 12.4215L48.797 10.8372L48.846 10.815C48.9618 10.7715 49.0916 10.7792 49.2026 10.8372L52.2315 12.4209C52.2529 12.432 52.2707 12.4341 52.2845 12.4329C52.3 12.4314 52.3169 12.4252 52.3324 12.4141C52.348 12.4028 52.3587 12.3888 52.3643 12.3759C52.3667 12.3703 52.369 12.3639 52.37 12.356L52.3688 12.328L51.79 8.97388C51.7655 8.83144 51.8127 8.68598 51.9165 8.58537L54.3678 6.21102L54.3837 6.19108C54.3877 6.18404 54.3909 6.17624 54.3928 6.16829C54.3968 6.15222 54.3963 6.13505 54.3911 6.1193C54.386 6.10359 54.3764 6.08948 54.3638 6.07886C54.351 6.06819 54.3352 6.06177 54.3188 6.05949L54.3159 6.05892L50.9281 5.56673C50.786 5.54608 50.6628 5.45668 50.5989 5.32804L49.0836 2.27637C49.0758 2.26131 49.0638 2.24828 49.0494 2.23934C49.0346 2.23016 49.0173 2.2251 48.9998 2.2251Z" fill="#FFE476"/>
<path d="M62.9998 1.3501C63.1799 1.3501 63.3566 1.40012 63.5097 1.49479C63.6436 1.5776 63.7548 1.69186 63.8344 1.8269L63.8669 1.88615L63.8674 1.88672L65.2808 4.73332L68.4384 5.19246C68.6173 5.21728 68.7863 5.29191 68.9249 5.4078C69.0635 5.52372 69.1668 5.67639 69.2228 5.84814C69.2789 6.01993 69.2852 6.20428 69.2416 6.37964C69.198 6.55482 69.1059 6.71386 68.9762 6.83936L68.9767 6.83992L66.6912 9.05249L67.2307 12.1794L67.241 12.2534C67.3155 13.0099 66.5093 13.5523 65.8276 13.1968L62.9993 11.7185L60.172 13.1962L60.1726 13.1968C59.4674 13.5662 58.6327 12.9717 58.769 12.1788L59.3079 9.05249L57.0235 6.83879C56.8942 6.71313 56.8018 6.55352 56.7586 6.3785C56.7154 6.20345 56.7226 6.01953 56.7786 5.84814C56.8346 5.67688 56.9373 5.52468 57.0754 5.40894C57.1962 5.30765 57.3399 5.23773 57.4935 5.205L57.5601 5.19303L60.7183 4.73389L62.1328 1.88672L62.1334 1.88615L62.1653 1.8269C62.2449 1.69179 62.3566 1.57763 62.4906 1.49479C62.6436 1.40021 62.8199 1.35012 62.9998 1.3501ZM62.9998 2.2251C62.9825 2.22512 62.9656 2.23023 62.9508 2.23934C62.9363 2.24831 62.9239 2.26065 62.9161 2.2758L62.9167 2.27637L61.4008 5.32804C61.3369 5.45665 61.2142 5.54605 61.0721 5.56673L57.6843 6.05949H57.6821C57.6657 6.06179 57.6503 6.06885 57.6376 6.07943C57.6249 6.09005 57.6154 6.10417 57.6103 6.11987C57.6051 6.13564 57.6046 6.15276 57.6086 6.16886C57.6125 6.18461 57.6204 6.19903 57.6319 6.21045L60.0832 8.5848C60.187 8.6854 60.2348 8.83082 60.2102 8.97331L59.6314 12.3275C59.6197 12.3966 59.6948 12.459 59.7664 12.4215L62.797 10.8372L62.846 10.815C62.9618 10.7715 63.0916 10.7792 63.2026 10.8372L66.2315 12.4209C66.2529 12.432 66.2707 12.4341 66.2845 12.4329C66.3 12.4314 66.3169 12.4252 66.3324 12.4141C66.348 12.4028 66.3587 12.3888 66.3643 12.3759C66.3667 12.3703 66.369 12.3639 66.37 12.356L66.3688 12.328L65.79 8.97388C65.7655 8.83144 65.8127 8.68598 65.9165 8.58537L68.3678 6.21102L68.3837 6.19108C68.3877 6.18404 68.3909 6.17624 68.3928 6.16829C68.3968 6.15222 68.3963 6.13505 68.3911 6.1193C68.386 6.10359 68.3764 6.08948 68.3638 6.07886C68.351 6.06819 68.3352 6.06177 68.3188 6.05949L68.3159 6.05892L64.9281 5.56673C64.786 5.54608 64.6628 5.45668 64.5989 5.32804L63.0836 2.27637C63.0758 2.26131 63.0638 2.24828 63.0494 2.23934C63.0346 2.23016 63.0173 2.2251 62.9998 2.2251Z" fill="#777777"/>
</svg>
