<svg width="14" height="14" viewBox="0 0 14 14" fill="none" xmlns="http://www.w3.org/2000/svg">
<path d="M6.99967 2.33337C7.32184 2.33337 7.58301 2.59454 7.58301 2.91671V6.41671H11.083C11.4052 6.41671 11.6663 6.67787 11.6663 7.00004C11.6663 7.32221 11.4052 7.58337 11.083 7.58337H7.58301V11.0834C7.58301 11.4055 7.32184 11.6667 6.99967 11.6667C6.67751 11.6667 6.41634 11.4055 6.41634 11.0834V7.58337H2.91634C2.59418 7.58337 2.33301 7.32221 2.33301 7.00004C2.33301 6.67787 2.59418 6.41671 2.91634 6.41671H6.41634V2.91671C6.41634 2.59454 6.67751 2.33337 6.99967 2.33337Z" fill="#777777"/>
</svg>
