<svg width="12" height="13" viewBox="0 0 12 13" fill="none" xmlns="http://www.w3.org/2000/svg">
<path fill-rule="evenodd" clip-rule="evenodd" d="M8.16166 8.45239C8.78515 7.64857 9.07899 6.63741 8.98341 5.62462C8.88783 4.61184 8.41 3.6735 7.64713 3.00052C6.88427 2.32753 5.89367 1.97045 4.87687 2.00192C3.86007 2.03338 2.89345 2.45103 2.17366 3.16989C1.45323 3.88926 1.03422 4.85625 1.00201 5.87382C0.969789 6.8914 1.3268 7.88296 2.00027 8.64645C2.67375 9.40995 3.61301 9.88791 4.62664 9.98294C5.64028 10.078 6.65201 9.78291 7.45566 9.15789L7.47716 9.18039L9.59816 11.3019C9.64461 11.3483 9.69976 11.3852 9.76046 11.4103C9.82115 11.4355 9.88621 11.4484 9.95191 11.4484C10.0176 11.4484 10.0827 11.4355 10.1434 11.4103C10.2041 11.3852 10.2592 11.3483 10.3057 11.3019C10.3521 11.2554 10.389 11.2003 10.4141 11.1396C10.4392 11.0789 10.4522 11.0138 10.4522 10.9481C10.4522 10.8824 10.4392 10.8174 10.4141 10.7567C10.389 10.696 10.3521 10.6408 10.3057 10.5944L8.18416 8.47339L8.16166 8.45239ZM7.12366 3.87739C7.40596 4.15513 7.63047 4.48602 7.78426 4.85096C7.93804 5.2159 8.01804 5.60768 8.01966 6.0037C8.02127 6.39972 7.94446 6.79214 7.79365 7.15832C7.64285 7.52451 7.42103 7.85721 7.141 8.13724C6.86097 8.41727 6.52827 8.63908 6.16209 8.78989C5.7959 8.94069 5.40348 9.01751 5.00747 9.01589C4.61145 9.01428 4.21967 8.93428 3.85472 8.78049C3.48978 8.62671 3.1589 8.40219 2.88116 8.11989C2.32612 7.55574 2.01648 6.79511 2.01971 6.0037C2.02293 5.21229 2.33874 4.45421 2.89836 3.8946C3.45798 3.33498 4.21606 3.01916 5.00747 3.01594C5.79888 3.01272 6.5595 3.32235 7.12366 3.87739Z" fill="#AAAAAA"/>
</svg>
