<svg width="71" height="26" viewBox="0 0 71 26" fill="none" xmlns="http://www.w3.org/2000/svg">
<path d="M5.61807 7.83208L6.61146 6.56456L19.2312 6.55854L18.4186 7.82592L5.61807 7.83208ZM17.0639 10.9499L17.4824 9.68256L1.49326 9.6935L0.5 10.9609L17.0639 10.9499ZM16.6044 14.079L16.7252 12.8116L9.45221 12.8175L8.74633 14.0849L16.6044 14.079ZM62.9932 24.0048C55.9959 27.8593 46.436 26.2269 43.8802 17.8694C42.3697 20.8418 39.9034 23.278 36.9644 24.6672C30.0009 27.9587 20.5465 25.0883 19.3305 16.0682C18.4401 7.42233 25.4376 2.07991 29.5742 0.731041C36.1483 -1.31687 42.6319 1.08952 44.874 7.07848L37.8125 8.92938C37.0621 6.84155 32.9845 5.33805 29.8501 7.60417C24.9204 10.6457 25.0115 18.2999 30.9675 19.4365C34.0598 19.833 36.1368 18.305 37.6941 15.9548L30.0259 15.9712L32.4897 10.6583H43.9819C48.9593 -3.38365 68.3713 -2.76882 70.3441 9.84895C71.0454 14.3336 69.5144 20.4124 62.9932 24.0048ZM56.6158 6.63169C51.3028 7.77493 49.9785 12.4682 50.7987 15.4752C51.6714 18.6752 55.052 20.7736 59.3411 18.7668C66.2154 15.5508 64.4134 4.95387 56.6158 6.63169Z" fill="#AAAAAA"/>
</svg>
