<svg width="50" height="60" viewBox="0 0 50 60" fill="none" xmlns="http://www.w3.org/2000/svg">
<path d="M0.9375 8.12501C0.9375 6.19114 1.70573 4.33648 3.07318 2.96902C4.44063 1.60157 6.2953 0.833344 8.22917 0.833344H41.7708C42.7284 0.833344 43.6766 1.02195 44.5612 1.38839C45.4459 1.75483 46.2497 2.29193 46.9268 2.96902C47.6039 3.64612 48.141 4.44994 48.5075 5.33461C48.8739 6.21928 49.0625 7.16745 49.0625 8.12501V49.6875C49.0625 50.2677 48.832 50.8241 48.4218 51.2343C48.0116 51.6445 47.4552 51.875 46.875 51.875H5.3125C5.3125 52.6486 5.61979 53.3904 6.16677 53.9374C6.71375 54.4844 7.45562 54.7917 8.22917 54.7917H46.875C47.4552 54.7917 48.0116 55.0221 48.4218 55.4324C48.832 55.8426 49.0625 56.399 49.0625 56.9792C49.0625 57.5593 48.832 58.1157 48.4218 58.526C48.0116 58.9362 47.4552 59.1667 46.875 59.1667H8.22917C6.2953 59.1667 4.44063 58.3984 3.07318 57.031C1.70573 55.6635 0.9375 53.8089 0.9375 51.875V8.12501ZM25 18.3333C25.7735 18.3333 26.5154 18.0261 27.0624 17.4791C27.6094 16.9321 27.9167 16.1902 27.9167 15.4167C27.9167 14.6431 27.6094 13.9013 27.0624 13.3543C26.5154 12.8073 25.7735 12.5 25 12.5C24.2265 12.5 23.4846 12.8073 22.9376 13.3543C22.3906 13.9013 22.0833 14.6431 22.0833 15.4167C22.0833 16.1902 22.3906 16.9321 22.9376 17.4791C23.4846 18.0261 24.2265 18.3333 25 18.3333ZM22.8125 23.4375V38.0208C22.8125 38.601 23.043 39.1574 23.4532 39.5676C23.8634 39.9779 24.4198 40.2083 25 40.2083C25.5802 40.2083 26.1366 39.9779 26.5468 39.5676C26.957 39.1574 27.1875 38.601 27.1875 38.0208V23.4375C27.1875 22.8573 26.957 22.3009 26.5468 21.8907C26.1366 21.4805 25.5802 21.25 25 21.25C24.4198 21.25 23.8634 21.4805 23.4532 21.8907C23.043 22.3009 22.8125 22.8573 22.8125 23.4375Z" fill="#AAAAAA"/>
</svg>
