<svg width="52" height="54" viewBox="0 0 52 54" fill="none" xmlns="http://www.w3.org/2000/svg">
<path d="M14.3512 0.0732601C14.7828 0.0208434 15.2607 0.0208435 15.8157 0.0208435H36.1843C36.7393 0.0208435 37.2172 0.0208434 37.6488 0.0732601C39.1811 0.263897 40.606 0.960282 41.6979 2.05213C42.7897 3.14398 43.4861 4.56888 43.6767 6.10118L43.686 6.18751H46.1712C46.8248 6.18134 48.2586 6.16901 49.4426 6.96143C50.975 7.98201 51.4375 9.73643 51.4375 11.5833C51.4375 19.9885 46.9574 25.6002 41.2378 28.7174C38.0466 34.5264 32.1513 38.5625 26 38.5625C21.3164 38.5625 16.8733 36.028 13.6759 32.5223C12.6135 31.3632 11.6809 30.0915 10.8947 28.7298C5.17825 25.6279 0.5625 20.0224 0.5625 11.5833C0.5625 9.73334 1.025 7.98201 2.55433 6.96143C3.74142 6.16901 5.17517 6.18134 5.82883 6.18751H8.314L8.32325 6.10118C8.51389 4.56888 9.21027 3.14398 10.3021 2.05213C11.394 0.960282 12.8189 0.263897 14.3512 0.0732601ZM46.757 10.8279C46.5188 10.8136 46.2802 10.8084 46.0417 10.8125H43.7199L43.6213 20.9567C45.5884 18.5887 46.8125 15.4992 46.8125 11.5833C46.8125 11.2195 46.7848 10.979 46.757 10.8279ZM5.1875 11.5833C5.1875 15.3974 6.38383 18.4283 8.30167 20.7778C8.09817 18.4777 8.15367 16.1405 8.20917 13.8157C8.23795 12.8085 8.25542 11.8074 8.26158 10.8125H5.95833C5.62225 10.8125 5.4095 10.8125 5.24608 10.8279C5.20275 11.0773 5.18313 11.3303 5.1875 11.5833ZM26.7092 10.2113C26.6499 10.0722 26.5511 9.95364 26.425 9.8703C26.2989 9.78696 26.1511 9.74253 26 9.74253C25.8489 9.74253 25.7011 9.78696 25.575 9.8703C25.4489 9.95364 25.3501 10.0722 25.2908 10.2113L23.7338 13.9483C23.6794 14.0787 23.5903 14.1917 23.4761 14.2749C23.3619 14.3581 23.227 14.4083 23.0863 14.42L19.0502 14.7438C18.8983 14.7558 18.7535 14.8125 18.6339 14.9068C18.5143 15.001 18.4253 15.1286 18.3781 15.2734C18.3309 15.4182 18.3277 15.5738 18.3688 15.7204C18.41 15.867 18.4936 15.9982 18.6092 16.0973L21.6833 18.7305C21.7908 18.823 21.8707 18.9433 21.9142 19.0782C21.9577 19.2131 21.9632 19.3574 21.93 19.4952L20.9927 23.4295C20.9565 23.578 20.9653 23.7338 21.018 23.8773C21.0706 24.0208 21.1647 24.1453 21.2882 24.2352C21.4118 24.3251 21.5593 24.3762 21.712 24.3821C21.8647 24.388 22.0157 24.3483 22.1458 24.2682L25.5992 22.1592C25.7199 22.0857 25.8586 22.0468 26 22.0468C26.1414 22.0468 26.2801 22.0857 26.4008 22.1592L29.8542 24.2682C29.9843 24.3483 30.1353 24.388 30.288 24.3821C30.4407 24.3762 30.5882 24.3251 30.7118 24.2352C30.8353 24.1453 30.9294 24.0208 30.982 23.8773C31.0347 23.7338 31.0435 23.578 31.0073 23.4295L30.0669 19.4952C30.0338 19.3574 30.0392 19.2131 30.0827 19.0782C30.1263 18.9433 30.2061 18.823 30.3136 18.7305L33.3908 16.0973C33.5074 15.9984 33.592 15.8671 33.6338 15.7199C33.6756 15.5728 33.6727 15.4166 33.6254 15.2711C33.5781 15.1256 33.4886 14.9975 33.3683 14.9031C33.248 14.8086 33.1024 14.7521 32.9498 14.7407L28.9168 14.42C28.7755 14.4088 28.64 14.3589 28.5252 14.2756C28.4104 14.1924 28.3208 14.0791 28.2662 13.9483L26.7092 10.2113ZM26 40.1042C26.6133 40.1042 27.2015 40.3478 27.6352 40.7815C28.0689 41.2152 28.3125 41.8034 28.3125 42.4167V49.3542H38.3333C38.9466 49.3542 39.5348 49.5978 39.9685 50.0315C40.4022 50.4652 40.6458 51.0534 40.6458 51.6667C40.6458 52.28 40.4022 52.8682 39.9685 53.3019C39.5348 53.7355 38.9466 53.9792 38.3333 53.9792H13.6667C13.0534 53.9792 12.4652 53.7355 12.0315 53.3019C11.5978 52.8682 11.3542 52.28 11.3542 51.6667C11.3542 51.0534 11.5978 50.4652 12.0315 50.0315C12.4652 49.5978 13.0534 49.3542 13.6667 49.3542H23.6875V42.4167C23.6875 41.8034 23.9311 41.2152 24.3648 40.7815C24.7985 40.3478 25.3867 40.1042 26 40.1042Z" fill="#AAAAAA"/>
</svg>
