<svg width="58" height="58" viewBox="0 0 58 58" fill="none" xmlns="http://www.w3.org/2000/svg">
<path d="M53.2944 43.6788C53.6319 43.1215 53.6546 42.4657 53.4239 41.906L53.4419 41.8962L49.6235 34.9509L56.5481 31.144L56.5409 31.1302C56.7936 30.9535 57.0011 30.7197 57.1468 30.4479C57.2924 30.1761 57.372 29.8738 57.3792 29.5655C57.3849 29.2568 57.3178 28.9511 57.1833 28.6732C57.0489 28.3953 56.8508 28.153 56.6052 27.9659L56.6151 27.9495L49.8347 23.8431L53.9292 17.0822L53.9154 17.0738C54.0459 16.7943 54.1087 16.4881 54.099 16.1799C54.0892 15.8717 54.007 15.57 53.8591 15.2995C53.71 15.0287 53.4991 14.7971 53.2434 14.6236C52.9877 14.45 52.6945 14.3395 52.3879 14.3009L52.3885 14.2815L44.3309 14.1128L44.4931 6.38432L44.4769 6.384C44.4502 6.07678 44.3515 5.78015 44.1889 5.51811C44.0263 5.25608 43.8044 5.03597 43.5409 4.8756C42.9837 4.5381 42.3273 4.51495 41.7682 4.74608L41.7584 4.72811L34.8725 8.51366L31.1092 1.66792L31.095 1.67569C30.9182 1.42301 30.6845 1.21546 30.4127 1.06983C30.1408 0.924192 29.8386 0.844559 29.5303 0.837364C29.2215 0.831538 28.9157 0.898547 28.6377 1.03296C28.3597 1.16737 28.1172 1.3654 27.93 1.611L27.913 1.60071L23.8424 8.32198L17.1602 4.27508L17.1522 4.2883C16.8728 4.15784 16.5666 4.09495 16.2583 4.10473C15.9501 4.11452 15.6485 4.19669 15.3779 4.34461C15.1078 4.49397 14.8766 4.70483 14.7032 4.96013C14.5297 5.21542 14.4188 5.50798 14.3795 5.81411L14.3597 5.81415L14.1977 13.5367L6.21393 13.3697L6.21361 13.3858C5.90638 13.4126 5.60976 13.5113 5.34772 13.6739C5.08568 13.8365 4.86558 14.0584 4.7052 14.3218C4.36771 14.8791 4.34455 15.5355 4.57568 16.0946L4.55772 16.1044L8.3761 23.0497L1.45153 26.8566L1.45905 26.8698C1.20636 27.0465 0.998813 27.2803 0.853181 27.5521C0.707547 27.8239 0.627912 28.1262 0.620717 28.4345C0.615036 28.7432 0.682153 29.0488 0.816629 29.3268C0.951102 29.6047 1.14916 29.847 1.39474 30.0341L1.38444 30.0511L8.16428 34.1571L4.07009 40.9174L4.08394 40.9258C3.83069 41.4747 3.8271 42.1301 4.14025 42.7002C4.28975 42.9705 4.50086 43.2018 4.75646 43.3753C5.01206 43.5488 5.30496 43.6596 5.61139 43.6987L5.6108 43.7181L13.6684 43.8868L13.5062 51.6153L13.5224 51.6156C13.5491 51.9228 13.6478 52.2195 13.8104 52.4815C13.973 52.7435 14.195 52.9636 14.4584 53.124C15.0157 53.4615 15.6721 53.4847 16.2308 53.2542L16.2403 53.2711L23.1262 49.4856L26.8902 56.3317L26.9043 56.3239C27.0811 56.5766 27.3149 56.7842 27.5867 56.9298C27.8585 57.0754 28.1608 57.155 28.4691 57.1622C28.7778 57.1681 29.0836 57.1011 29.3616 56.9666C29.6397 56.8322 29.8821 56.6342 30.0693 56.3886L30.0863 56.3989L34.1565 49.6783L40.8394 53.7255L40.8474 53.7123C41.1268 53.8428 41.433 53.9057 41.7413 53.8959C42.0495 53.8861 42.3511 53.8039 42.6217 53.656C42.892 53.5066 43.1232 53.2957 43.2967 53.0403C43.4703 52.7849 43.5812 52.4922 43.6205 52.1859L43.6399 52.1865L43.8019 44.4639L51.7856 44.6309L51.786 44.6148C52.0932 44.588 52.3898 44.4894 52.6519 44.3268C52.9139 44.1642 53.134 43.9422 53.2944 43.6788ZM20.7118 33.7531L16.1708 27.2592L16.0371 33.6545L13.9499 33.6108L14.1546 23.8056L16.3009 23.8498L20.7146 30.1048L20.8434 23.9449L22.9313 23.989L22.7254 33.7935L20.7118 33.7531ZM24.6654 33.8358L24.8711 24.0303L31.8098 24.1763L31.7712 26.0136L26.9198 25.9113L26.8764 27.9695L31.6244 28.0694L31.5865 29.9055L26.8378 29.8069L26.7911 32.0412L31.6425 32.1435L31.6039 33.9808L24.6654 33.8358ZM40.7328 34.1726L39.1537 27.4036L37.3075 34.1L35.0883 34.0539L32.4855 24.1905L34.8227 24.2392L36.395 31.3605L38.41 24.3144L40.0415 24.3489L41.7453 31.4732L43.6136 24.4235L45.9508 24.4722L42.9522 34.2198L40.7328 34.1726Z" fill="#AAAAAA"/>
</svg>
