<svg width="44" height="52" viewBox="0 0 44 52" fill="none" xmlns="http://www.w3.org/2000/svg">
<path fill-rule="evenodd" clip-rule="evenodd" d="M15.9281 0.978232C16.1557 0.720023 16.4506 0.530147 16.7798 0.429798C17.1091 0.32945 17.4597 0.322576 17.7927 0.409946C21.9118 1.48337 28.2409 4.2728 33.5747 9.2388C38.9492 14.2494 43.3469 21.5182 43.3469 31.4317C43.3469 35.3577 42.4667 40.1602 39.4172 44.1382C36.3195 48.1868 31.1827 51.1211 23.2118 51.6151H23.1895C12.5667 52.1499 5.10837 46.6305 2.11094 39.0274C-0.860486 31.4911 0.628942 22.1162 7.3258 15.0034C7.50295 14.8147 7.71759 14.6651 7.95596 14.5642C8.19432 14.4633 8.45114 14.4133 8.70995 14.4175C8.96875 14.4217 9.22382 14.48 9.45878 14.5885C9.69375 14.6971 9.90343 14.8536 10.0744 15.0479L14.7729 20.3817C16.4927 17.3137 17.3284 14.6394 17.4547 11.9614C17.5847 9.2388 16.9829 6.36395 15.5975 2.89852C15.4698 2.5789 15.4335 2.23008 15.4925 1.89099C15.5515 1.55191 15.7036 1.2359 15.9318 0.978232H15.9281ZM15.7424 29.2254C15.7424 28.8595 15.8144 28.4973 15.9544 28.1593C16.0944 27.8213 16.2996 27.5143 16.5583 27.2556C16.817 26.9969 17.1241 26.7917 17.462 26.6517C17.8 26.5117 18.1623 26.4397 18.5281 26.4397C18.8939 26.4397 19.2562 26.5117 19.5941 26.6517C19.9321 26.7917 20.2392 26.9969 20.4979 27.2556C20.7566 27.5143 20.9618 27.8213 21.1017 28.1593C21.2417 28.4973 21.3138 28.8595 21.3138 29.2254C21.3138 29.9642 21.0203 30.6727 20.4979 31.1952C19.9755 31.7176 19.2669 32.0111 18.5281 32.0111C17.7893 32.0111 17.0807 31.7176 16.5583 31.1952C16.0359 30.6727 15.7424 29.9642 15.7424 29.2254ZM30.5624 29.6934C30.7348 29.5207 30.8715 29.3158 30.9647 29.0903C31.058 28.8647 31.1059 28.6231 31.1057 28.3791C31.1055 28.135 31.0573 27.8934 30.9637 27.6681C30.8702 27.4427 30.7332 27.2379 30.5605 27.0655C30.3878 26.8931 30.1829 26.7564 29.9574 26.6631C29.7319 26.5699 29.4902 26.522 29.2462 26.5222C29.0022 26.5224 28.7606 26.5706 28.5352 26.6641C28.3098 26.7577 28.1051 26.8947 27.9327 27.0674L15.7387 39.2614C15.5613 39.4327 15.4198 39.6376 15.3225 39.8642C15.2251 40.0908 15.1739 40.3345 15.1718 40.5811C15.1696 40.8276 15.2166 41.0722 15.31 41.3004C15.4034 41.5287 15.5413 41.736 15.7156 41.9104C15.89 42.0848 16.0974 42.2227 16.3256 42.316C16.5538 42.4094 16.7984 42.4564 17.045 42.4543C17.2916 42.4521 17.5353 42.4009 17.7618 42.3036C17.9884 42.2062 18.1933 42.0648 18.3647 41.8874L30.5624 29.6934ZM25.6224 39.7331C25.6224 38.9943 25.9159 38.2857 26.4383 37.7633C26.9607 37.2409 27.6693 36.9474 28.4081 36.9474C29.1469 36.9474 29.8555 37.2409 30.3779 37.7633C30.9003 38.2857 31.1938 38.9943 31.1938 39.7331C31.1938 40.4719 30.9003 41.1805 30.3779 41.7029C29.8555 42.2253 29.1469 42.5188 28.4081 42.5188C27.6693 42.5188 26.9607 42.2253 26.4383 41.7029C25.9159 41.1805 25.6224 40.4719 25.6224 39.7331Z" fill="#FB93AA"/>
</svg>
