<svg width="52" height="52" viewBox="0 0 52 52" fill="none" xmlns="http://www.w3.org/2000/svg">
<path d="M20.9625 20.193C20.9625 19.226 21.3466 18.2987 22.0304 17.615C22.7141 16.9312 23.6414 16.5471 24.6084 16.5471C25.5753 16.5471 26.5026 16.9312 27.1864 17.615C27.8701 18.2987 28.2542 19.226 28.2542 20.193C28.2542 21.1599 27.8701 22.0872 27.1864 22.7709C26.5026 23.4547 25.5753 23.8388 24.6084 23.8388C23.6414 23.8388 22.7141 23.4547 22.0304 22.7709C21.3466 22.0872 20.9625 21.1599 20.9625 20.193Z" fill="#CA90F0"/>
<path d="M0.545837 24.5679C0.54617 20.7013 1.47832 16.8917 3.26334 13.4617C5.04837 10.0317 7.63369 7.08241 10.8004 4.86357C13.967 2.64474 17.6218 1.22171 21.4551 0.715012C25.2884 0.208312 29.1874 0.632859 32.8218 1.9527C36.4562 3.27254 39.7191 5.44881 42.334 8.29718C44.9489 11.1456 46.8389 14.5822 47.8439 18.3159C48.8489 22.0497 48.9392 25.9707 48.1074 29.7468C47.2755 33.5229 45.5459 37.0429 43.065 40.0088L50.8671 47.8138C51.2535 48.2285 51.4638 48.7769 51.4538 49.3436C51.4439 49.9103 51.2143 50.451 50.8135 50.8518C50.4127 51.2526 49.872 51.4822 49.3053 51.4922C48.7386 51.5022 48.1901 51.2918 47.7754 50.9054L39.9646 43.0946C36.4476 46.01 32.1733 47.864 27.6415 48.4398C23.1096 49.0156 18.5075 48.2896 14.3732 46.3464C10.2388 44.4033 6.74294 41.3234 4.29435 37.4668C1.84576 33.6101 0.545592 29.1362 0.545837 24.5679ZM24.6083 12.1721C23.0452 12.172 21.5162 12.6286 20.2091 13.4858C18.902 14.343 17.8739 15.5635 17.2511 16.9972C16.6283 18.4308 16.438 20.0152 16.7036 21.5556C16.9691 23.0959 17.679 24.5252 18.7458 25.6675C18.1897 25.9864 17.6647 26.3578 17.1708 26.7817C15.03 28.6163 13.6708 31.3404 13.6708 34.7763C13.6708 35.3564 13.9013 35.9128 14.3115 36.3231C14.7218 36.7333 15.2782 36.9638 15.8583 36.9638C16.4385 36.9638 16.9949 36.7333 17.4051 36.3231C17.8154 35.9128 18.0458 35.3564 18.0458 34.7763C18.0458 32.5829 18.8742 31.0838 20.0175 30.1009C21.2075 29.08 22.8671 28.5171 24.6083 28.5171C26.3496 28.5171 28.0092 29.08 29.1992 30.1009C30.3425 31.0838 31.1708 32.58 31.1708 34.7763C31.1708 35.3564 31.4013 35.9128 31.8115 36.3231C32.2218 36.7333 32.7782 36.9638 33.3583 36.9638C33.9385 36.9638 34.4949 36.7333 34.9051 36.3231C35.3154 35.9128 35.5458 35.3564 35.5458 34.7763C35.5458 31.3404 34.1867 28.6163 32.0458 26.7817C31.5561 26.3628 31.0289 25.9898 30.4708 25.6675C31.5377 24.5252 32.2476 23.0959 32.5131 21.5556C32.7787 20.0152 32.5883 18.4308 31.9655 16.9972C31.3428 15.5635 30.3146 14.343 29.0076 13.4858C27.7005 12.6286 26.1714 12.172 24.6083 12.1721Z" fill="#CA90F0"/>
</svg>
