<svg width="14" height="13" viewBox="0 0 14 13" fill="none" xmlns="http://www.w3.org/2000/svg">
<path d="M5.00882 4.30434L6.52432 1.25234C6.56843 1.16401 6.63628 1.08972 6.72025 1.0378C6.80423 0.985878 6.901 0.958374 6.99973 0.958374C7.09846 0.958374 7.19524 0.985878 7.27921 1.0378C7.36319 1.08972 7.43104 1.16401 7.47515 1.25234L8.99065 4.30434L12.3786 4.79667C12.4764 4.81022 12.5683 4.85098 12.644 4.91428C12.7197 4.97758 12.776 5.06089 12.8066 5.15468C12.8372 5.24847 12.8408 5.34898 12.817 5.44473C12.7932 5.54048 12.743 5.62761 12.6721 5.69617L10.2209 8.07034L10.7996 11.4245C10.8736 11.855 10.4187 12.1828 10.0296 11.9798L6.99973 10.3955L3.96932 11.9798C3.58082 12.1834 3.12582 11.855 3.1999 11.4239L3.77857 8.06976L1.3274 5.69559C1.25681 5.62698 1.20688 5.53993 1.1833 5.44436C1.15971 5.34878 1.16341 5.2485 1.19397 5.15492C1.22454 5.06135 1.28074 4.97822 1.3562 4.91499C1.43165 4.85177 1.52333 4.81097 1.62082 4.79726L5.00882 4.30434Z" fill="#999999"/>
<path d="M6.9996 0.520874C7.17961 0.520874 7.35634 0.570898 7.50944 0.665568C7.64335 0.74838 7.75451 0.862639 7.83415 0.997681L7.86662 1.05693L7.86719 1.0575L9.28052 3.90409L12.4382 4.36324C12.6171 4.38805 12.7861 4.46269 12.9246 4.57857C13.0632 4.6945 13.1665 4.84716 13.2226 5.01892C13.2786 5.1907 13.2849 5.37505 13.2414 5.55041C13.1978 5.72559 13.1057 5.88464 12.9759 6.01013L12.9765 6.0107L10.691 8.22327L11.2305 11.3501L11.2407 11.4242C11.3153 12.1807 10.5091 12.7231 9.82739 12.3676L6.99903 10.8893L4.1718 12.367L4.17237 12.3676C3.46714 12.737 2.63245 12.1425 2.76872 11.3496L3.30762 8.22327L1.02328 6.00956C0.894003 5.88391 0.801589 5.7243 0.758385 5.54928C0.715186 5.37423 0.722344 5.19031 0.778323 5.01892C0.834307 4.84766 0.937021 4.69545 1.07512 4.57971C1.19599 4.47843 1.33968 4.4085 1.49325 4.37577L1.5599 4.36381L4.7181 3.90466L6.13257 1.0575L6.13314 1.05693L6.16504 0.997681C6.2447 0.862571 6.35635 0.748407 6.49032 0.665568C6.64335 0.570988 6.8197 0.5209 6.9996 0.520874ZM6.9996 1.39587C6.98223 1.3959 6.96538 1.401 6.9506 1.41012C6.9361 1.41909 6.92366 1.43143 6.91585 1.44657L6.91642 1.44714L5.40056 4.49882C5.3367 4.62742 5.21395 4.71683 5.07186 4.73751L1.68408 5.23027H1.68181C1.66545 5.23257 1.65005 5.23963 1.63737 5.2502C1.6247 5.26082 1.61519 5.27494 1.61003 5.29065C1.60488 5.30642 1.60434 5.32353 1.60832 5.33964C1.61224 5.35538 1.62017 5.3698 1.63168 5.38123L4.08293 7.75557C4.18678 7.85618 4.23451 8.00159 4.20996 8.14408L3.63119 11.4982C3.61948 11.5673 3.69451 11.6298 3.7662 11.5922L6.7968 10.008L6.84579 9.9858C6.96155 9.94229 7.09133 9.94994 7.20239 10.008L10.2313 11.5917C10.2526 11.6028 10.2704 11.6049 10.2843 11.6036C10.2997 11.6022 10.3166 11.596 10.3321 11.5848C10.3477 11.5736 10.3584 11.5596 10.364 11.5467C10.3664 11.5411 10.3688 11.5346 10.3697 11.5267L10.3686 11.4988L9.7898 8.14465C9.76524 8.00221 9.81249 7.85675 9.91626 7.75614L12.3675 5.3818L12.3835 5.36186C12.3875 5.35482 12.3906 5.34702 12.3926 5.33907C12.3965 5.32299 12.396 5.30582 12.3909 5.29008C12.3857 5.27437 12.3762 5.26025 12.3635 5.24963C12.3508 5.23897 12.335 5.23255 12.3185 5.23027L12.3157 5.2297L8.9279 4.73751C8.78577 4.71685 8.66251 4.62745 8.59863 4.49882L7.08334 1.44714C7.07555 1.43208 7.06357 1.41906 7.04916 1.41012C7.03431 1.40094 7.01704 1.39587 6.9996 1.39587Z" fill="#999999"/>
</svg>
