<svg width="24" height="24" viewBox="0 0 24 24" fill="none" xmlns="http://www.w3.org/2000/svg">
<path d="M12 1.5C14.5196 1.5 16.9362 2.50063 18.7178 4.28223C20.4994 6.06382 21.5 8.48044 21.5 11C21.5 14.262 19.7225 16.8977 17.915 18.7451L17.9131 18.7471C17.0092 19.6608 16.0228 20.4891 14.9668 21.2217L14.9629 21.2246L14.5371 21.5146L14.5332 21.5176L14.333 21.6504L14.3242 21.6562L13.9473 21.8955L13.9395 21.9014L13.9385 21.9004L13.6035 22.1055L13.5947 22.1113L13.1787 22.3535L13.1748 22.3555C12.8618 22.5341 12.5126 22.6387 12.1543 22.6621L12 22.667C11.588 22.667 11.183 22.5597 10.8252 22.3555L10.8213 22.3535L10.4053 22.1113L10.3945 22.1045L9.875 21.7852L9.86426 21.7783L9.67188 21.6533L9.66797 21.6504L9.25488 21.375C8.1158 20.6043 7.0547 19.7242 6.08691 18.7471L6.08496 18.7441C4.27761 16.8959 2.5 14.262 2.5 11C2.5 8.48044 3.50063 6.06382 5.28223 4.28223C7.06382 2.50063 9.48044 1.5 12 1.5ZM12 8.5C11.6717 8.5 11.3463 8.56479 11.043 8.69043C10.7398 8.81606 10.4645 9.00036 10.2324 9.23242C10.0004 9.46449 9.81606 9.73978 9.69043 10.043C9.56479 10.3463 9.5 10.6717 9.5 11L9.51172 11.2451C9.53578 11.4894 9.59617 11.7295 9.69043 11.957C9.81606 12.2602 10.0004 12.5355 10.2324 12.7676C10.4645 12.9996 10.7398 13.1839 11.043 13.3096C11.3463 13.4352 11.6717 13.5 12 13.5C12.663 13.5 13.2987 13.2364 13.7676 12.7676C14.2364 12.2987 14.5 11.663 14.5 11C14.5 10.337 14.2364 9.70126 13.7676 9.23242C13.2987 8.76358 12.663 8.5 12 8.5Z" fill="#EA5C5C" stroke="white"/>
<circle cx="12" cy="11" r="3" fill="white"/>
</svg>
