<svg width="10" height="10" viewBox="0 0 10 10" fill="none" xmlns="http://www.w3.org/2000/svg">
<g clip-path="url(#clip0_935_906)">
<path d="M3.57794 3.43166L4.66044 1.25166C4.69195 1.18857 4.74041 1.13551 4.80039 1.09842C4.86037 1.06133 4.9295 1.04169 5.00002 1.04169C5.07054 1.04169 5.13967 1.06133 5.19965 1.09842C5.25963 1.13551 5.30809 1.18857 5.3396 1.25166L6.4221 3.43166L8.8421 3.78333C8.9119 3.79301 8.97758 3.82212 9.03163 3.86733C9.08568 3.91255 9.12593 3.97205 9.14779 4.03905C9.16964 4.10604 9.17222 4.17784 9.15522 4.24623C9.13823 4.31462 9.10235 4.37685 9.05169 4.42583L7.30085 6.12166L7.71418 8.5175C7.7671 8.825 7.4421 9.05916 7.16419 8.91416L5.00002 7.7825L2.83544 8.91416C2.55794 9.05958 2.23294 8.825 2.28585 8.51708L2.69919 6.12125L0.948353 4.42541C0.897931 4.3764 0.862269 4.31423 0.845421 4.24596C0.828574 4.17769 0.831216 4.10606 0.853048 4.03922C0.87488 3.97238 0.915026 3.913 0.968923 3.86784C1.02282 3.82268 1.08831 3.79354 1.15794 3.78375L3.57794 3.43166Z" fill="#DDDDDD"/>
<path d="M4.99992 0.729187C5.1285 0.729187 5.25474 0.764918 5.3641 0.83254C5.45975 0.891691 5.53914 0.973305 5.59603 1.06976L5.61922 1.11208L5.61963 1.11249L6.62915 3.14577L8.8846 3.47373C9.01241 3.49146 9.13312 3.54477 9.2321 3.62754C9.33108 3.71035 9.40488 3.81939 9.44491 3.94208C9.48493 4.06478 9.48946 4.19646 9.45833 4.32172C9.42721 4.44684 9.3614 4.56044 9.26872 4.65009L9.26912 4.65049L7.63664 6.2309L8.02197 8.46438L8.0293 8.51727C8.08254 9.05764 7.50668 9.44508 7.01978 9.1911L4.99951 8.13519L2.98006 9.19069L2.98047 9.1911C2.47674 9.455 1.88053 9.03037 1.97787 8.46397L2.36279 6.2309L0.731122 4.64968C0.638783 4.55992 0.572773 4.44592 0.541913 4.3209C0.511057 4.19587 0.516169 4.0645 0.556154 3.94208C0.596143 3.81975 0.66951 3.71103 0.76815 3.62836C0.854488 3.55601 0.957125 3.50606 1.06681 3.48269L1.11442 3.47414L3.37028 3.14618L4.38062 1.11249L4.38102 1.11208L4.40381 1.06976C4.46071 0.973256 4.54046 0.89171 4.63615 0.83254C4.74546 0.764983 4.87142 0.729205 4.99992 0.729187ZM4.99992 1.35419C4.98752 1.35421 4.97548 1.35785 4.96493 1.36436C4.95456 1.37077 4.94568 1.37958 4.94011 1.3904L4.94051 1.39081L3.85775 3.57058C3.81214 3.66243 3.72446 3.7263 3.62297 3.74107L1.20313 4.09304H1.2015C1.18982 4.09468 1.17882 4.09973 1.16976 4.10728C1.16071 4.11487 1.15392 4.12495 1.15023 4.13617C1.14655 4.14743 1.14617 4.15966 1.14901 4.17116C1.15181 4.18241 1.15747 4.19271 1.16569 4.20087L2.91659 5.89683C2.99077 5.96869 3.02486 6.07256 3.00733 6.17434L2.59391 8.57017C2.58555 8.61952 2.63915 8.66413 2.69035 8.63731L4.85506 7.50572L4.89006 7.48985C4.97274 7.45877 5.06544 7.46423 5.14478 7.50572L7.30827 8.6369C7.32353 8.64486 7.33623 8.64636 7.34611 8.64545C7.35717 8.6444 7.36922 8.63996 7.38029 8.63202C7.39143 8.62398 7.39907 8.61396 7.40308 8.60476C7.4048 8.60076 7.40648 8.59616 7.40715 8.59051L7.40633 8.57058L6.99292 6.17474C6.97538 6.073 7.00913 5.9691 7.08325 5.89724L8.83415 4.20127L8.84554 4.18703C8.84841 4.182 8.85064 4.17643 8.85205 4.17076C8.85488 4.15927 8.8545 4.14701 8.85083 4.13576C8.84714 4.12454 8.84035 4.11446 8.8313 4.10687C8.82219 4.09925 8.81092 4.09467 8.79915 4.09304L8.79712 4.09263L6.37728 3.74107C6.27576 3.72632 6.18771 3.66246 6.14209 3.57058L5.05973 1.39081C5.05417 1.38005 5.04562 1.37075 5.03532 1.36436C5.02472 1.3578 5.01238 1.35419 4.99992 1.35419Z" fill="#DDDDDD"/>
</g>
<defs>
<clipPath id="clip0_935_906">
<rect width="10" height="10" fill="white"/>
</clipPath>
</defs>
</svg>
